/* XPM */
static char *barrel_bottom[] = {
/* columns rows colors chars-per-pixel */
"64 64 127 2 ",
"   c #060302",
".  c #0C0504",
"X  c #0E0906",
"o  c #090708",
"O  c #0E0A08",
"+  c #110605",
"@  c #120A06",
"#  c #180A07",
"$  c #140C09",
"%  c #1A0E0B",
"&  c #16110C",
"*  c #1C130D",
"=  c #171310",
"-  c #1E1610",
";  c #22150E",
":  c #23180F",
">  c #221611",
",  c #291712",
"<  c #251A12",
"1  c #2B1D14",
"2  c #2C1F18",
"3  c #311E16",
"4  c #2D2116",
"5  c #2E2219",
"6  c #322217",
"7  c #34251A",
"8  c #39261B",
"9  c #36291C",
"0  c #3B2B1D",
"q  c #3E301F",
"w  c #362C20",
"e  c #3D2D21",
"r  c #3E3121",
"t  c #422D1E",
"y  c #4A2F1F",
"u  c #43301F",
"i  c #432E21",
"p  c #492F21",
"a  c #453223",
"s  c #4B3424",
"d  c #4D3826",
"f  c #453428",
"g  c #4C3629",
"h  c #4D3A2A",
"j  c #523625",
"k  c #583725",
"l  c #533926",
"z  c #593A27",
"x  c #513628",
"c  c #553B29",
"v  c #5B3D2A",
"b  c #433F3A",
"n  c #543F30",
"m  c #613F2C",
"M  c #57412C",
"N  c #5C412D",
"B  c #46423C",
"V  c #4A453E",
"C  c #5C4230",
"Z  c #63432D",
"A  c #69452F",
"S  c #644531",
"D  c #694631",
"F  c #664833",
"G  c #6B4A34",
"H  c #6E4C39",
"J  c #714C35",
"K  c #724E39",
"L  c #6D5036",
"P  c #735237",
"I  c #75513A",
"U  c #79533B",
"Y  c #4B4741",
"T  c #4F4A44",
"R  c #524E47",
"E  c #544E49",
"W  c #57514B",
"Q  c #59534D",
"!  c #5D5751",
"~  c #5E5952",
"^  c #7D5741",
"/  c #625B55",
"(  c #655E59",
")  c #6C6057",
"_  c #66625B",
"`  c #6B645C",
"'  c #71655C",
"]  c #6B6760",
"[  c #726B64",
"{  c #756E68",
"}  c #777066",
"|  c #77716A",
" . c #79736B",
".. c #7E7B73",
"X. c #827A6E",
"o. c #827D75",
"O. c #837E79",
"+. c #858077",
"@. c #8A8377",
"#. c #85817B",
"$. c #8D857A",
"%. c #888480",
"&. c #8F8980",
"*. c #928C84",
"=. c #959185",
"-. c #999386",
";. c #969288",
":. c #9A948B",
">. c #9F9B8D",
",. c #9B9690",
"<. c #9E9993",
"1. c #A19E94",
"2. c #A59F9C",
"3. c #A5A29D",
"4. c #A7A6A2",
"5. c #ABA6A2",
"6. c #ADA9A4",
"7. c #AEADA9",
"8. c #B1AEAA",
"9. c #B5B2AD",
"0. c #B9B6AE",
"q. c #B6B2B1",
"w. c #BAB6B4",
"e. c #BBB8B5",
"r. c #BFBDB8",
"t. c #C1BEB7",
"y. c #C1BDB9",
/* pixels */
"a e W E R Q Q ! / ' ~ _ ~ ` W _ ] [ | ..| +.#.| .. ._ #.#.#.;.$.*.=.;.;.o... .( | |  ._ } | _  .[ [ / ! ~ _ ~ ! R B W Q Q B 4 a ",
"e ( W < < 4 7 9 4 X 4 5 7 7 7 5 4 4 - r r 0 9 9 0 q w 4 < 9 0 7 r r 0 q 1 5 7 7 q r 0 r 9 @ - 5 6 7 9 1 4 7 4 4 4 9 9 > : V ~ 8 ",
"T Y 5 1 : 4 9 9 > @ 5 9 9 7 7 9 9 7 > q 0 9 q 0 0 e 5 5 4 6 0 0 r 0 7 7 1 4 0 7 9 r q q 4 $ * 9 9 9 7 5 9 7 7 4 7 7 7 4 > 1 E ! ",
"~ 5 1 1 < : 9 0 1 @ 5 0 9 9 7 7 7 7 - q 0 9 q 0 9 e 9 4 < 9 0 7 0 0 q 0 1 4 9 e q 9 9 9 8 . * 7 9 9 4 4 7 9 4 1 9 4 9 < 4 1 4 W ",
"_ 4 1 1 1 4 4 7 4 @ 9 9 7 9 5 9 5 4 - q r q 0 7 r q r w w 9 0 0 0 q q r 4 1 0 0 q q 9 q 6 @ - 4 4 0 9 5 4 9 4 < 9 7 9 5 4 1 4 W ",
"/ 6 1 4 4 4 0 X X X X $ & & & = O O   - & X & & & = &   & X & & & & $ $ X X & & = = O = &   * & O & & X & X   X X   9 7 7 0 u [ ",
"E 0 0 q 6 0 8 X $ * - - - - > < > * X : < - 1 > * < 4   4 1 - < 5 : > : . > 4 - 4 4 - : < . 4 - & < < & - - . * * O   9 9 6 7 } ",
"' 0 0 0 9 X $ * - 4 5 4 < 4 4 4 4 1 O 4 7 4 0 9 9 7 9 X 4 7 9 9 r 4 9 7 X 4 7 4 r 6 4 7 6 X w 4 : > 9 4 4 > $ ; < & O q q q s X.",
"@.8 7 6 7 X & < 4 9 6 4 6 4 7 0 7 5 @ f a 0 c a e a a . 0 0 a d M 0 s 0 . 7 i e h h 0 e e @ a 9 1 > e 6 8 4 $ 5 < & X 9 4 9 9 $.",
"=.q q 9 7 O $ 4 4 q 0 4 6 0 0 a 0 9 $ v c i S z l n v $ l h d C F 0 N s + t v a Z v s l s . l 0 1 7 0 8 e 2 % 8 4 * $ X $ # & >.",
"<.s s s 9 $ & 5 7 r 0 8 6 0 0 a 8 7 % z S d m C l C S $ c S c v Z t S d . 8 D g N N s v s @ l t 6 8 a 0 0 2 $ 6 7 * $ 0 0 0 0 :.",
"=.a u 9 q X * 4 9 d u q 6 a 0 s 8 7 $ c S x z v c S G @ N S l C c a F d . 8 H c z Z l F a @ l u < 7 a 0 a 6 $ 8 4 * O s h s d 1.",
"=.0 q 0 q X * 4 8 c d 9 7 f 0 s 8 e $ c Z s S z j S H . v F v Z Z s J s @ t K c M N l H t @ d a , 4 a a i 6 $ 8 4 * X a s h u <.",
">.s f a a & * 4 6 M s 6 9 s 0 s 8 7 $ v D t D Z v N K . M G v F Z a G j $ a K v v A M S u # d s 2 0 a a t 6 @ 2 1 & # a s u a 1.",
"4.s s s s X - 1 7 M d 9 8 s 6 d 7 e $ z Z a A A v v I . S N l H F t K a . i K n m Z Z A u # 0 d 2 8 i a t , $ 6 4 : X s u a s >.",
"6.s u f s X - 1 8 C s q , a 6 a 8 e % l S 0 S G v v K . v A N G Z 0 G d + i J c A v Z A t . s y 1 8 a a a 1 + , 4 - @ a a a a >.",
"6.q 0 0 t X > 4 2 S a y 7 t 6 t 8 0 > m k a Z S m v S . p G v A Z i D c @ t J x Z N D G i @ a l 1 0 a l c , % 5 1 < O r s s a 3.",
"3.1 4 1 5 @ ; 1 7 F a l 8 i 7 i t 0 > Z S e Z D S S S . j Z A Z Z 8 S z + t K g A A G D 0 # s s 6 8 g i c , % 5 1 < @ 7 0 e 0 4.",
"4.* % * * . ; 4 6 F s s 5 s 8 a t t ; N z 0 A Z v C S . g F Z m D 8 m x % e G a v Z G G 8 $ j d 3 8 a g l , @ 8 5 > @ 1 6 6 6 4.",
"6.s a a t & > 4 0 S s a 7 i 8 f t i & M N t Z F x v v . s N c l J 8 v p @ 8 G g Z v Z G 8 @ a d 7 7 d y c 2 % 8 4 < $ C c z N 8.",
"3.M M M y * : 9 e C d h 8 a 8 0 0 s > c z 0 v Z d N S $ a S c c A 0 v t % 0 F f A Z Z A 8 + a j 7 8 d a x 3 % t 9 : * c N N N 8.",
"3.S N c d & - 4 0 C g s 6 a 7 a 0 d > c c u Z N y v S . a A l j G y c j + 8 Z l A z N Z e . l s 7 0 g a g , % t 4 : $ c v l M 9.",
"8.F F Z c & - 6 h h d d 6 t 3 t 0 g ; j l u k v a z S @ c S l s Z c c y . t Z M v l Z Z 8 . l d 0 0 a i s 1 ; t 4 ; $ d l z z 9.",
"3.M M c y & < 4 a l a s 6 a 2 g 0 d * c y l z Z g S S X h N v j N d c d . 0 c z v l A M 0 + v l 0 t t i a 3 % a 4 : $ c c c N 7.",
"3.d d d s X : 4 u h t h 8 i 8 i 6 h % j l d c z d v H . c F l j z s c t   0 v v S l F v 8 . Z s 0 a 0 0 j 3 ; 0 1 : & l c l N 0.",
"8.Z N M M - : 1 q h 0 s 0 i 4 i t d # l c d v Z s N G + d Z c a l u v d . 0 N l v c Z M 0 @ D d t t 6 0 s 7 ; 0 4 < & c l c v 6.",
"9.u t t 0 * < 5 7 h 6 s 0 s 7 i 8 p % s v l l z a S F + g v l y M u N s   t Z c c j F z 8 . A p t a 0 8 c 6 * 0 1 4 * M l c c 3.",
"9.0 0 8 0 & < 5 8 r 6 s 0 i 8 p e i - d v c z v t m H + a G d a A u k s . 0 m c Z c N N t . A j q a 6 8 l 8 % e 7 > & f e e e w.",
"r.v l c N $ < 9 7 e 6 g t e 8 g 8 p * s D z v v t A F . x G a t J s v s . 0 Z v F k l S 0 + P y 0 0 0 8 l 8 ; 0 7 : & r 5 7 0 w.",
"t.M M v c & > 9 r e 2 p i 0 8 g 8 f % g l z Z c t Z G . d F j 8 J c Z a . e H N J a v v u X P s u 0 0 7 d i * a 9 : & h g h c 9.",
"r.N N M c & * 4 e r w g a 8 i g e i > g N v A v h F H . l S C t G k M a . t D c G s Z M u @ P a f a t 8 a 0 * e 7 * $ s l c c e.",
"r.M M v v $ * 4 f f 8 p p 8 e a i i > x N v A z s L P . M S Z 0 G z c d . t G l D t F l t $ G v c s 0 6 s g % a 4 * X c M v M 0.",
"q.M c c d $ < 1 f i t y t 7 a t i p ; g Z N Z v z S K . c N D t P c z l . a G s G t G s t @ G l c 0 t 0 e i % i , ; X c M C N e.",
"e.c l s d @ * 1 i a t t a 8 x a 8 p ; d N m Z l m G J . M S m 8 P M Z a . a Z j A s Z l t # N c a 0 a 8 e p % f 1 > $ M M v N t.",
"w.c c d d $ ; ; a g t t a 2 j g i d , g z v m l S Z K . x C m t G N N a + t m z Z a Z s a @ v l a 0 e 7 8 f ; g 1 > & c c M N r.",
"q.9 7 9 0 & * 1 0 f i d s 1 i t a g > a Z v v g A v S . c S A 8 G N Z u + t v c A t Z s y @ c l s 0 0 8 8 i ; 0 > < $ N c c v r.",
"q.a e w h @ < 2 0 i 0 a g 1 i t g i , t m v z p D Z N @ l c A 7 Z k N a . 0 k z Z t Z a a . l y h a i 3 0 i * i 4 : @ 6 8 0 0 9.",
"3.c c l l & = 1 0 e 8 g p 1 8 a h a , t v z k 0 G Z N . d v A 6 F z Z t . t v d Z t Z s j . g a h 0 t 1 0 a > i 1 - $ q q u s 0.",
"6.M c l l $ ; 3 7 i 8 g d 7 0 y c i < i Z c v a F z v . j d Z 3 Z c m y @ u v y Z 8 N a j . g t g f t 1 i i % e 4 % @ c c N N 5.",
"9.N c v c * @ 2 7 h 8 d d 7 i a c t ; d v z m x Z d v + j l Z 8 A c v u X u Z y Z t v i j . a t s s a 7 a i % 7 4 $ & s u s d 3.",
"8.c c z M & @ 6 7 x 7 g d i i a n i > k v c c v m j m # g h v 0 Z M z d . l v s Z t v t y . x a p d i 8 h i % 3 4 @ $ d c M c 3.",
"q.l c c l X @ 4 7 a i g t i i a v 8 % c v k v k J c v % s j A t Z M v s . l k u Z t z t p . h p i t p 7 C a % 7 4 @ . c S S L 7.",
"0.N N z l $ @ > 0 e i s h 0 e t v f % z c h c x U k m + j l S a G d z k   y k t G j l d p . g a 0 g e 3 G e % 0 1 @ @ d z N N 4.",
"6.v v v c $ & , a 7 c i a 0 e g n a > c h k j j ^ k m + j z G a A s c c X s z 8 G z v a j . g p 0 0 i 1 K f # 8 4 @ @ u d z M 3.",
"5.v N c c X @ 1 0 7 c l a i e d c s - k x l c p X.k k # k v P u F y c z . c v t A k m g j . g a 8 i a 3 K h % 7 1 + @ t u u u 6.",
"6.8 1 1 : & # 4 2 7 x c s 0 8 j C l = x C j j j U m y # j Z K s Z u v z . l m t G k D x j . t l 8 i h 2 K p % , , % @ % % * < 4.",
"5.a 0 6 6 $ & 4 , 6 c m d s e g c d - k Z j l j U G k - j v U y F d A v . z Z t J c D c k . y d 0 8 f 7 F i % , 6 & & 2 : > 1 3.",
"2.d s u 0 & * 4 7 8 x c s a e l s a % k z l m l U F z % v Z K j G d F M . k v 0 G z D j v + y p 8 6 d 8 S i ; 7 6 ; . 0 t u 0 3.",
"<.s 0 a a $ > 4 0 n p v h i 8 t i t > m N k v k U A l @ v Z A c A d A z . k Z 7 J v v d m + j p t 7 g 8 v e > e < > & f s s s 3.",
"-.u a t f $ * 4 e C h d x e i a 8 t % v Z d A l P A z @ v M A l Z a G v . v A 8 m Z m l Z + g p s 3 u 6 z 8 % i 5 - & s u s y 6.",
"3.s a s u $ * : w M c i a 0 e i 8 0 , z z d z v U A z + N N F l v a m v   Z m 6 v m v k Z $ g t t , a 6 g 3 @ w < < . g u d d :.",
"1.a s s s . * , 7 h v i t e i s 8 i > l N d y v U A y + z A G c c a Z m . Z m 3 j z v D Z @ j 8 p ; i 8 i 8 # 7 > > $ e 0 0 0 -.",
">.a f s a X * , 4 h j 0 8 3 e t 3 0 > g v t d s K Z y # z Z G s c e N v . c Z 3 c z k v Z . d 0 h % e 3 i 3 # 7 : - $ 7 q r a ;.",
";.9 0 0 0 X * : 1 q x 0 i 3 0 0 8 6 , a l 0 s s D i t % d c F s c f c d . l l 7 d g c k c $ p 0 c 3 7 9 e i # 3 < * = q s s s <.",
">.* X $ * $ - > 1 8 g 8 0 1 0 0 7 3 * i d 8 d s F 0 t . i t N s l e a u . s l 6 u a k i s @ t 0 c > 7 0 7 8 % 2 > * $ 5 0 q 0 =.",
"&.7 6 7 4 X X - > 1 7 6 8 2 3 7 1 1 & 8 0 6 a q c 0 0 . a 8 a 0 a 0 u 0 . 0 0 , 0 8 a i 0 . 8 7 f > 7 7 7 8 @ 2 < & X 8 7 6 9 @.",
"X.r a q 0 O O & * - 5 < 4 > 1 4 < 2 $ 1 5 1 9 4 0 4 4 . 7 5 9 4 5 1 5 9 o 9 7 ; 4 4 9 6 9 X : > w * - 1 4 5 @ > * X o 0 9 0 0 ) ",
"' q 7 r 9 9 0 O & O * & * > * * * - @ < - - : - 4 : *   4 4 < 4 * - < :   > < @ : : < < < X & * 1 $ - * * > + @ X 7 7 9 0 e 0 W ",
"' 4 6 4 9 5 9   X . X X & & O & X & X & & & $ $ & & X   & & O & $ X & X   & * X $ X X & &   O & O . X X @ $ X o   9 7 4 6 6 7 / ",
"W 4 1 1 : 4 9 7 4 4 4 1 9 7 7 7 7 - $ 7 7 0 9 q 7 0 4 4 r q q 9 0 0 0 9 9 r 7 0 q 9 0 0 w < 4 < 9 7 9 9 9 9 @ > 9 7 4 1 1 1 2 / ",
"W 1 < 4 < 7 9 9 < 4 9 9 4 6 9 6 4 * * 7 9 q q 0 9 q 4 4 q q 9 0 w 9 7 4 w e r 0 0 q 9 q r - 5 7 9 7 7 9 7 w @ 5 7 7 > 1 1 1 6 ! ",
"! W 1 1 < 4 7 9 1 7 e 6 4 5 9 9 5 * + 7 w q 9 q 9 0 6 5 9 9 r q 0 9 7 - 2 9 9 e 0 0 0 q q < 5 7 5 7 7 7 w 5 @ 1 9 4 1 1 > 1 Y V ",
"w ~ B 4 < 7 7 7 4 4 9 1 1 7 6 5 4 * $ 4 0 e 9 9 7 q 6 5 0 q q 0 q 0 7 4 1 9 0 9 7 q q q 9 - 4 9 7 9 9 7 9 5 @ 5 9 9 4 < 1 W B 7 ",
"a e V W Q T B T / / / ! ! / { | | ( } [ _ { | | `  ...#.;.&.*.*.+.*.O.%.O.`  ...| +... .| } | _ ~ ~ ` _ / ( ` _ ~ W ! T T W 5 7 "
};
