/* XPM */
static char *basalt_side[] = {
/* columns rows colors chars-per-pixel */
"64 64 206 2 ",
"   c #0B0C0B",
".  c #100E12",
"X  c #0E1416",
"o  c #0E121C",
"O  c #121315",
"+  c #12161D",
"@  c #141B1A",
"#  c #1B1E1C",
"$  c #16221E",
"%  c #181724",
"&  c #161B24",
"*  c #1C1D23",
"=  c #231E25",
"-  c #172225",
";  c #1D2324",
":  c #1A2B26",
">  c #1D252C",
",  c #1D2C2B",
"<  c #152528",
"1  c #1E322B",
"2  c #1F2A33",
"3  c #1F3235",
"4  c #222524",
"5  c #242C27",
"6  c #21252A",
"7  c #232B2D",
"8  c #2B2D2D",
"9  c #24322C",
"0  c #2C352D",
"q  c #242633",
"w  c #242D33",
"e  c #2A2D33",
"r  c #242F39",
"t  c #2A2E3B",
"y  c #263435",
"u  c #2C3434",
"i  c #2D3B36",
"p  c #26353B",
"a  c #2C343B",
"s  c #263A3B",
"d  c #2D3B3C",
"f  c #333535",
"g  c #333B35",
"h  c #33363C",
"j  c #343C3C",
"k  c #3B3D3E",
"l  c #2E413B",
"z  c #2E4136",
"x  c #34423D",
"c  c #3A423B",
"v  c #2D3540",
"b  c #2D3B41",
"n  c #323641",
"m  c #343C42",
"M  c #3B3D45",
"N  c #333D49",
"B  c #3C3E4A",
"V  c #2E4142",
"C  c #354344",
"Z  c #3B4344",
"A  c #364944",
"S  c #3B4A45",
"D  c #35434A",
"F  c #3B454B",
"G  c #364B4C",
"H  c #3C4B4C",
"J  c #36514F",
"K  c #3C524C",
"L  c #374453",
"P  c #3B4552",
"I  c #354851",
"U  c #3C4C53",
"Y  c #3E4D59",
"T  c #3D5253",
"R  c #3E5A54",
"E  c #3C5459",
"W  c #3E595B",
"Q  c #3D4D60",
"!  c #414646",
"~  c #424D47",
"^  c #40454B",
"/  c #424B4C",
"(  c #494D4E",
")  c #43534D",
"_  c #49534E",
"`  c #4A594F",
"'  c #404753",
"]  c #434D53",
"[  c #494D54",
"{  c #444D59",
"}  c #494E5A",
"|  c #445354",
" . c #4A5455",
".. c #445A55",
"X. c #4B5B56",
"o. c #44545B",
"O. c #4A555B",
"+. c #455A5B",
"@. c #4B5B5D",
"#. c #515556",
"$. c #525A57",
"%. c #52555C",
"&. c #535C5D",
"*. c #585C5F",
"=. c #45605B",
"-. c #4C625D",
";. c #536157",
":. c #53635E",
">. c #59635F",
",. c #55685E",
"<. c #58685F",
"1. c #445461",
"2. c #4B5662",
"3. c #455B61",
"4. c #4C5C62",
"5. c #4C5C6A",
"6. c #525663",
"7. c #535C63",
"8. c #5A5C64",
"9. c #545E6A",
"0. c #595F6C",
"q. c #476164",
"w. c #4D6363",
"e. c #4D6965",
"r. c #4D636A",
"t. c #4E686A",
"y. c #546365",
"u. c #596465",
"i. c #556965",
"p. c #5B6B66",
"a. c #54646B",
"s. c #5A656B",
"d. c #556A6B",
"f. c #5B6B6C",
"g. c #5F7067",
"h. c #55726C",
"j. c #5B716D",
"k. c #4F6770",
"l. c #4F6970",
"z. c #566572",
"x. c #5A6573",
"c. c #556B72",
"v. c #5C6C73",
"b. c #5A6678",
"n. c #576F79",
"m. c #5D6D7A",
"M. c #567276",
"N. c #5D7373",
"B. c #5D7974",
"V. c #5C747A",
"C. c #5E7A79",
"Z. c #57747B",
"A. c #616465",
"S. c #606E67",
"D. c #61666D",
"F. c #626D6E",
"G. c #637066",
"H. c #63726F",
"J. c #64786E",
"K. c #68746C",
"L. c #666671",
"P. c #626D73",
"I. c #6A6F73",
"U. c #666679",
"Y. c #636D7A",
"T. c #696D7B",
"R. c #627374",
"E. c #697373",
"W. c #617A75",
"Q. c #697A75",
"!. c #64747A",
"~. c #6A737B",
"^. c #647A7B",
"/. c #6B7C7C",
"(. c #717E7E",
"). c #668075",
"_. c #6D807B",
"`. c #70817D",
"'. c #667483",
"]. c #6A7682",
"[. c #657B82",
"{. c #6C7C83",
"}. c #6C7E8C",
"|. c #707680",
" X c #737C86",
".X c #717C8B",
"XX c #678080",
"oX c #6C8283",
"OX c #6C828B",
"+X c #6C8B8C",
"@X c #6A8687",
"#X c #738284",
"$X c #7A8385",
"%X c #7B8C87",
"&X c #74818D",
"*X c #78868C",
"=X c #7B8B8E",
"-X c #748C8B",
";X c #7C938E",
":X c #75908D",
">X c #7A8491",
",X c #7D8B94",
"<X c #768592",
"1X c #769597",
"2X c #818F8D",
"3X c #859799",
/* pixels */
"a. .a.#.| o.d.4.s.5.H H .X Xs.6.0.#.U @.4.y.y.@.U | ] T | U y &.@.O.&.d.j [ p.O.] H o.U :.u.F T C 5 4 C y.a.Z 6.@.) H m * < n o.",
"X.p.%XO...%.H 6.%.y.H Z X.#X&XH.%X+.| *.y.y.P.y.| p.| |  . .] 9.| o.+.u./.Z /.=.4.O.U @.^.!.j 2.@. .m l H T | F g d.| M / a.9 > ",
"9 s.{.d.4.:.| O.4.7.] Z > G i.$X/.e.+.+.%.4.d.y.@.5.] | / A +...S F @.d.T.g ].'.v.f.7.y.v.@.Z G.f.Y.O.P @.v.}.y.H m C C O.$.X.D ",
"A d ..w.S.F.| 7.w.| S y F +. .c.B...F f.o.O.%.8.4.A g M Z p a U [ |  .4..Xo.z.V.a.d.&.7.f.a 7 f.4.!.p.7.y.f.V.y.R.N.+.@.o.F s.U.",
"=.4.) ] 2.d.H @.@.| H ^ | | ~ @.5.k h O.F @.O.o.&.T ..^ H O.u H T ) O.f.R.D m 5.d.y.4.X.D 5  .H f.y.w.7.u.y.y.P O.7./ k | #.@...",
"d.H = F U U k -.&.o.@./ e.] D F j a A x . S ! | u.H ] c N j _  . .O.D s C 9 D Z O.r.-.X. .j w a d ..4.u.y.d.@.2.u.D w C &.a.i.U ",
"4.1.y X ; @ y , K U / ..G F D F  .@.!.f.> M ) U $.c g u M  . .y.p.Y.O.U  .9.oXf. .@.@.y.d.M ~ D y.a.#.x.b.;.U ^ O.C p d 6 T U | ",
"t.2.M.v.a y f / : w f u d } X.y.r.Y.N.L Z s.V g T { ) b | o.>.y.y.a.j.6.y.^.Q.^ H 4. .H 2.4.@.@.+.s.y.Z i j.E C F M [ A N ..+.:.",
"+.*.B.y.3.d.).O.o.g 8 y  .| %.4.+.2.o.b 8.w.#.C i.O.T  .&.O.Z #.w.:.w.@.u.W.~.y 0.:.2.M ~.5.:.y.v.y.j.y.U C C A q.H x T F 4 @. .",
"..r.y.8 2.m.XXv.z.4.{ O.9.#.y _ 0.y.O.[ 2.d.u.O.4.o.4.&./.O.U O.r.@.9.f.4.v.@.r ~.z.P.e O.a.@.a.u.a.N.p.oX^.-.1...o.) u.D X C y.",
"r.0./ w u.| b.o.o.@.+.u.2X| S D N U F w | D.&.3.=.*.w.o.@.5.-.B.OXm.s.s.v.(.6 | -.r.!.u p.N.v.y.a.s.F.T.p.z.E { j.m.5.p.w ]  .H ",
"O.7.V a e.&.v.K | G.p.6.i.d.@.r.m.!.p.} ^.&.w.+.y.h.s.+.O.s.v.!.m.[.~.p.3.U i | ] Y 0.U K.oX!.f.f.%.s.s.a.G | P.Q._.j.G - 5.$.4.",
"y.y.=.} ^.:.v...@.>.y.y.E.c.y.f.oX#X~.v.y.7.O.4.*.@.9.|  .] i.:.Q R r...m 9 c.a.%.6.} R./.3Xy.P.v.s.y.y.5.F a.z.Z f A m a.N d 3.",
"y.P.~.v.y.7.T.y./ | %.9.f.w.9.v.!.[.#X].7.6.@.@.4.| C T y.+.@.O.^.[.u.;.,Xs.H +.$.f.O.D %X;X/.H.A.s.@.4. .7 U f ; >   a ^ O.[ ' ",
"o.v.oX'.7.y.7.o.j P O.0.*.d.f.@.] s.s.>.y.&.6.%.7.| C T N.d.6...a.^.f.N.oXoXQ.i.q.d. ._ O.i.>X=XP.d.@.o.u B.T.g @ X # F ] 6. .d.",
"&.9.z.F.~.d.a.a.%.[ T t.y.b.y.9.*.b.O.y.$.t.w.y.O. .) @.y.p.%./ z.].V.R.oXV.].y.y.s.y.d.o.3.r.}.!.s.@.+.>. .X.u 0 9 Z 7.| ~ G G ",
"s...oX^.P.&. XN.%.2.D O.9.9.!.@.u.+.r.&.2.y.v.8.5.i.7.C ^ r.#.[ v.N.A.H.R.v.d.S.y.&.y.p.oX=X].>X%.*X&X}.v.s.u.d s D o.| ..q.E.i.",
"v.U t ) | [ 7.v.o.F a ^ E 2.9.T Z y.9.4.:.d.p.].Q.D x a G :.+.F 9.Q.{.{.f.x.O.| T +.7.&.v.[ '.m e T r.Z.e.D.f.| N.U ) w.F.~.Q.^.",
"s.@.G g 5 u ] C U +.=.@.[ [ 4.$.u.y.d.a.[ i.<XV.e.t.y.r.O. .0.H y.~.P.R.D.+.Z :.:.f.y.u.] 3.c.t.v.D.q.T P  .%.}  .U v.y.f.E.d.p.",
"o.D i.y...G o.f.{.s.7. .| y.+.=.f.f.9.d.&.9.z.{.<Xs.O.@.@.@.r.o.f. X/.d.f.m y.../ a...y.| y.s. .$XP.r.o.2.f.t ] >.d.].p.y.R.p.s.",
"y A @.A F  .i.s.x.,.R.a.j @.o.s.#XF.+.| o./ -X{.R.O.+.O.5.F ^ $.!.~.{. .y.,X!.O.y...U y...u.j.7.V.s.4.+. .C D U | X.y.| W.d / -.",
"x p l H -.6.@.h.2.n g Y C K  .d.oX/.u. .| U e ] | (  .u.O. .b m U d.s.s.R.!.N.s.f.y.y.+.s.P. .&Xw.d.:.=...] i.7. .=.{ s.Q.{.| ^ ",
"G & | m.P.V.y.v.d.H O.u.+.| { s.}.>XN.@.+.o.d i 7 y F f.y.@.a | F ~ @.d.f.].a.v.d.v.2.7.d.u.u.z.6.w. .;.u.>.4.$.| 0.3.] oX~.R.Y ",
"C * O.r y.p.E %.o.O.| O.0.4.| d.{.3X~.:.O.o.s.y.| H | | +.K x $.d.v.^ ] 4.f.^.p.a.s.o.d.d.d.u.8.y.7.| 6.7.y.a.4.e.y.o.| B.9.%.T ",
"O U G w T.f.0. .o.| @.-.u. .Z f.}. Xy.C H ] o.C F  .y.f.s.M.j O.y.v.+.| [ ] H a.| 9.d.d.4.@.O.d.9.~ =.y.z.u.d.u.r.p.R.u.%.&.S @ ",
"x @ e j y.B.4.y.7.4.p.X.&.) [ f a 4 e F F A g w +.%.4.j.f.a.e @.9.2.6.4.d.y.U H D F 7.a...O.) @.H x +.F i.x.T.A.a.I.f.f.].b.C.[ ",
"u.% p N C ] O.7.u.@.y.R X.d.9.G g F &. .] F j a s.d.i.v.f.@.i w.H | 7.7.:.s.@.P.4.C D F | O.5.) T [ M H / p.d.-.y.J.S.u.G.m.X.z.",
"7 + q w R | a.a.s.-.X.;.&.4.:.| d o.%.} | H h > |  .4.s.5.6.C a o. .s.f.@.s.v.f.o.@.d.y.D p @.7. .+./ ~  .v.P.Y.4.D.X.y. .w...o.",
"w D A 9 $ O.7./ 6.4.+.a.R.j.i. .A U O.[ ] o.+.u O./ O.y.2.H m u H &.s.7.s.s.v.K | ) @.f.U H @.r.F @.4.O.y.s.D.b.~.0.s.4.N.D o.T ",
"b T ....j P.O.4. .4.4.p.r.y.p.9.C m ) [ ^ H / | 4. .F O.A D o.f.o.o.+.@.d.y.s./ | w.7.+.O. .p.[ u -.s.[ G.V.R.~.j.S.P.O.H F T H ",
"X.|  .$.5.m.C.a.,.5.i.s.X.y.y.6.O.m ] | H D m ] s.@.H C H s.i.f.d.s.y./ s.j.y.h -.a.y.7.d.u.-.-.G =.u.8.4.^.8.E.^.S.6.3.W s.6./ ",
"X.5.X.%.4.Y.u.d.&.] F.F.s.9.p.4.O.A D 2.| ] ] | 4.5.-.j @.7.@.4.5.@.| s. .v.o.H y.y.F.d.s.y.@.@.| T u.d.w.f.P.j y.w.u.u.z.6.o.] ",
"R.@.=.&.] @.a.w.H i s.y.a.%.f.f.| f.H =.| 4.@.@.7.4.@.C y.y.@.4.y.y.@.f.y.P.| | i.y.y.s.v.+.y.8.4.F r.P.u.@.w._ 4.5.=.d.y.w...X.",
"-.y.$.w.4.] ^ ;.w.i F a V.!.c.4.d.7.H h | y.&.+.=.y. .M 4.y.y.f.y.y.@.f.y.R./ @.u.y.a.S.y.] V.c.5.S 7. .7.| @.$.%.&.y.y.S.D.u.#.",
"f.-.0. .| M ..&X| 4.e.e b.z.R.s.y.O.O.C ] @. .@.H F H C C y.&.@.@.5.4.y.s.f.| H 7.y.y.a. .B y.4. .s.+.F D C U / H | K O.z.f.X.u.",
"=.2.#.K  .A _ q.R.y.4.X.7.z.~.d.O.@.O.F j | @.C ]  .| y. .d y.4.y.y.@.4.y.y.F | @.@.O. .@.O.U j i.u.y.9.A.:.4.+.G H [ ) 5.| s.F.",
"d.] A d.-.| T D s.o.o.$.] m u j ]  .G | w.Z F G y.4. .d.| y o.d.e.+.O.H 9.O.D m [ F p A o.@.F @.:.s.0.8.w.s.4.5.+.| -./ @.H O.s.",
"o. .^.l.i.O.P.a.N.' 7.;. ./ ] $.]  .| a.u.4.|  .O.y.@.7.D y Z S O.a.9.O.f a F A A N 8 a U T F 6.y.+.v.@.o.u.f.d.=.$.: V s.8.j M ",
"j.J.!.[.u.oXj.U {.'.2.y.+...O.4.@. .%.u.y.y.y. .] y.r.| ..| ] d S i.4...{.y.7.&.T 9...^.,X| ] ) | Y U : 2 3.8.d.s.s.T - s.z.Z & ",
"0 v.N.y.a.[.=.W 1.v.a.r.:.y.y.4.y.-.7.%.4.@.d.6. .+.@.@.y.a.2.s.H D | a.a.:.y. .7.y.y.|  X5.r.| | O./ h [ #.a.q.M.r.O.i U i.o./ ",
"y.r.d.~.i.L s.@XV.6.d.6.%.:.u.V.=.y.R.| ] ) 5.:.y.+.o.O.f.~.3.f.y.D / a.O.7.s.7.R.d.4.[ ^. .@.7.] w.y.N.u.4.v.k.5.:.y.v.* d.S r.",
"r.G 2 O.j c.R.y.[. .5.F 6.7.s.V.~./.(.s.R.y.@.y.N.7.o.O.y.s.+.O.1.o.D w.2.a.o.y.p.N.P.t.y.K m 9.+.7.f.F.7.e.2.s { u.D 1 @ C N ] ",
"H.u y j.v.Q.v.d.z.s.2. .:.O.@.D / v.N.f.P.O.d.s.y... .5.y.4.+.@.o.| +.~ U 4.o.y.S.s.v.d.7.U ) &.4.o.u.4.k 5.v 1.7.h p j 2.] ]  .",
"j.F c &.y.+.o.7.M.%.:.=.} K S %.O.4.B.F.w...{ s.%.+. .y.d.6.@. .@.| } E H c.a.y.%.x.d.y.:.y. . .:.-.-.K +.R.H V.w.r.0.-.2.m G | ",
"+.| e.s.5.[ *.r.b.m.4.7.X.&.<.i.c.^.P.a...0.2.5.-.-.O.&.y.7.y.y.y.r.@.w.| o.q.X.c.Z.p.5.y.y.s.8.@.A 5.w.X.p.b x.a.@.e.S 4.U F q.",
"..E.j.r.Z 4.*.!.V.d.y.y.%.} 5.V.!.i.-.w.a.f.y.+.q.7.r.u.y.9.d.y.y.u.y.y.+.-.5.y.s.0.5.| 0.u.0.u.a.; A y.:.b.A b.v.4. .! ) S 5.@.",
"M.i.N.O.g 5.6.P.x.r.@.4. .g $.>.0.e.6.4.a.r.=.[ 6.6.y.u.A 4.I.N.q.V.a.|  .H @.5.7.y.O.F u.6.w.7.#.* l P.p.-.@.P 5.z.T | C u.f.+.",
"s.g.6.C M 9.4.9.y.i.u i U 0 S f.y.:.,.y.s.r.@.m *.4.:.@.u a @.y.F ,.d.6.:.K y.y.y.=.1.^ u.%. .D A L 4 u.@.9.s.A ] F | @.p.!.d.0.",
"6.a.7.8 c 4.3.T O.m 4 $ D g 7 M | $.i.4.y.9.F H s.5.F y u O.@.+. .o.@.P y m F O.d.+.A F ;.y.i.=.y.k.M  .y.s.D.u   M @.| d H.&.+.",
"w.4 | A | >.4.4.=.4.,.s.T m x H N @.K $.v.s.e ( 6.@.v.s.S.=.+. .7.@.3.F n e.d $ U M , 7 T / @.5.2.@.:...r.6.a.b.H 2.7.N w &.| ..",
"* x H G @.p.e.y.p.!.=.!.a.n.F b V y.x 7 } +.1 > K U ]  .@.+.O.7.8.$.d.6.q.M...9 g w 7 e o.} 1.U 9.{ ~.+.s.p.OXa.&.8.@.L.$.!.y.B ",
"m C.j.,.d.9.6.r.d.d. .B.+.t.o.3.4.y.4.u j d h h u x _ A &.o.v.u.u.u.u.c.b.f.x O.j.R.i. .s.w.| L...d./.s.u.s. Xy.y.i.5.d.n.T [ ; ",
"OX/.5.X.@.u.f.| ^.2.4.o.d.| y.@.z.p.G X.P.Z @.s.y.%.{ ] v.r. Xu.-XU.1.} | v.A 5.s.;.3.z.| :.] Y.U.s.T.h.a.Y.1Xq.7.d.d.@.y.j M i ",
"f.-.M.5...u.H d.T.^.p.o.j.1. .R.2.z.U %.i.| Q.~.5.x H u./.y.W.b.V.'..X] ` | s.O.@./ C c.d.| A c.-.5.y.s.7.7...{ v.y.i.U ] C > 6.",
"F e.d.3.L 9 1.~.'.m.m.^.9.i.O.y.N.[ s.4.-.X.<.y.O.F 4 a.D.r.5.~.N.6.-.f.+.C ] | | H v.W. .d.} Y d.a.c.P.C s.w.d.d.{ D y P 8.- Y ",
"N.i.G o.F U 7.s.!.V.-X{.P.Y.a.4.a.v o.7.y.| ^.&.z.;.@.4 | f.r.d.N.z.P.] 7. .:.&.y.s.V.z.d.d.7.2.e.q.=.&.N ^ 7.r.%.9.t.w.@.O.x 9 ",
"s.c.o.H 2.@.5.f.Z @.!./.:XO.S i m d O.-. .i.V.C.v.a.s.2.e 6.O.T 1.c.-.6.s.s.7.y.d.d.v.s.c.v.e.r.~.G o.| / p y.k.d.-.r.+.F D { a ",
"a.P.5.I #.4.4.4.e 4 / _ c.J l ,.F 3.@.6.d.E.^.p.v.v.w.f.M.> @.v.Z.@.Z 8.7.@.w.y.N.d.4.a.d.v.7.%.@.P N B F a P } $.f S u.E.H.#.; ",
"^  ...; j y.H , 6 * f 7 C u.o.@.@.:.+.e.d.y.4.N.z.s.r.:.@.h x i.@.o.F a.7.| | :.@.@.9 z.N.s.o.] @.H  .7.=.x b * y p ' E..X+XC - ",
"C H , 3 y.@.H.m.F.P./ _.4.y.H _ 6.;.y.6.y.7.| =.7.e.6.o.U m | v.w.x U $.a.y.r.O.p.9.d U 4.s y , ~ | | =.O.A c i 4 x 7.b.N.P.; o ",
"& w y w 9 | R.d.,.o.y.s.V.2.e.F G X.>.a.s.s.r.y.4.@.T n M o.: ] H 7 w K | 5.] Y...q.r.{ o.G d s u Z  .) @.o.N.y.| ] @.w.o.b U F ",
"a e F F ..q '.z.s.k.2.y.] H a.| 6.:.| 9.P.u.2.4.k.d.6.9.O.7.i Z j h m ] o.y.d.} 2.q.y.U F ] 2.d.O.@.X.%.) 5.s.+.| S 4.1.S ] ' ) ",
"F t S j | | j i.y.w d.f.@XW. .T %.*.S U B ~ | %.5.O.6.d.K H S ^ | 4.$.d.-.4.'  .P.%.@.o.C o.2.b.| F u | u.7.r. .4.@.4.2.r X.$.Z ",
"4.j B / @.*.| F C r y W.N.^..X+.X. .Y s.a.{ J o.~ H ..+.u g x F W 3.r.| @.%.f.O.V N / D ; j R | w.+.U ] C ] G 7.@.@.F g v @.*.F "
};
