/* XPM */
static char *bedrock[] = {
/* columns rows colors chars-per-pixel */
"64 64 117 2 ",
"   c #020202",
".  c #090707",
"X  c #070907",
"o  c #070709",
"O  c #090709",
"+  c #070909",
"@  c #0C0B0B",
"#  c #150F0E",
"$  c #0F100D",
"%  c #12110E",
"&  c #0E0C10",
"*  c #100F11",
"=  c #0F1014",
"-  c #141413",
";  c #191616",
":  c #161A16",
">  c #1C1C16",
",  c #16171A",
"<  c #1A161A",
"1  c #1D1D1C",
"2  c #201E1C",
"3  c #1F201E",
"4  c #22211E",
"5  c #1E1E21",
"6  c #211E20",
"7  c #1F2221",
"8  c #232323",
"9  c #292525",
"0  c #252825",
"q  c #292825",
"w  c #252528",
"e  c #292629",
"r  c #262829",
"t  c #2C2C2C",
"y  c #312E2E",
"u  c #2E312E",
"i  c #32312E",
"p  c #2E2E31",
"a  c #312F31",
"s  c #2E3131",
"d  c #343434",
"f  c #383636",
"g  c #363836",
"h  c #393936",
"j  c #363639",
"k  c #393638",
"l  c #363839",
"z  c #3C3C3B",
"x  c #413F3E",
"c  c #3E413E",
"v  c #41413F",
"b  c #3E3E41",
"n  c #413F41",
"m  c #3F4140",
"M  c #434343",
"N  c #484545",
"B  c #464946",
"V  c #494846",
"C  c #464648",
"Z  c #494649",
"A  c #474949",
"S  c #4B4B4B",
"D  c #504E4F",
"F  c #4E504E",
"G  c #51514E",
"H  c #4E4E50",
"J  c #514F50",
"K  c #4E5151",
"L  c #545353",
"P  c #595656",
"I  c #565A57",
"U  c #5A5A56",
"Y  c #565659",
"T  c #5A565A",
"R  c #575959",
"E  c #5B5B5B",
"W  c #605E5E",
"Q  c #5E605D",
"!  c #61615E",
"~  c #5E5E61",
"^  c #615E62",
"/  c #5E6161",
"(  c #636363",
")  c #696565",
"_  c #666966",
"`  c #696A66",
"'  c #656568",
"]  c #696568",
"[  c #666968",
"{  c #6B6B6B",
"}  c #716D6D",
"|  c #6C706E",
" . c #71716E",
".. c #6D6C70",
"X. c #716D71",
"o. c #6D7171",
"O. c #747474",
"+. c #797776",
"@. c #777876",
"#. c #797877",
"$. c #777778",
"%. c #7A777A",
"&. c #777A7A",
"*. c #7C7D7C",
"=. c #807F7F",
"-. c #7E807B",
";. c #80807E",
":. c #7F7F81",
">. c #807F81",
",. c #7E8181",
"<. c #838383",
"1. c #898986",
"2. c #828488",
"3. c #8B8A8A",
"4. c #8C908E",
"5. c #90928E",
"6. c #939493",
/* pixels */
"z M x f y t z V U e 8 z d h f h z z d z S D c z z z z l n z z N f M m s t t d m M M z h M x h M G N f M S S Z D z a d z h h l v ",
"z z w d l d N L E 8 1 g d d d d d d z d c M d M N s M C A w i t p L N t 9 l C L N A b M f z A S N N M S K m M z d t d d d c B f ",
"z t e z k F E T { r , l z d e t C H z 7 p z M d A l N A L t z M d S V N C d z C A L C z d S L D M L E L Z a l z e d d d n B A M ",
"8 d g L Q S U T W : e @.( d d z Y U t M Y z H d k N d ' ..d V B a M L { ' d 2 M A S M ( ( z A D J E R ) O.z d l z z i ( +.M M i ",
"d V K S 2 > L H L 8 9 L 1 $ F E b z 9 d < 1 L l C B 8 l 4 1 M d S S G z % 4 M d t l v L 8 % C C L D M M q 3 t t d k z A q 2 M z ",
"M A U L - 4 m z K d 1 d > t K L d d C p - d U S N z d t 3 t c z T z M z # g P 8 M n S Z $ i m N L v A z % 8 p z g z M d - t h N ",
"V A B P T z 1 z P r t M S { U P E E ( / o.O.O.P C Q ( ' ! D V ( / z B U K F I z ` ` ` 2.$.( P L ) L P L A B z m M A M A A V v N ",
"G V z N L x t b K 7 d / t 1 d M D z t C N N b 8 t z u b g u d B d 1 t z l 9 t d D v z U S l d y z t r 9 M A h L ! P P A z D z M ",
"C T H M M h i d S w 8 { Q - : 8 w h M t 9 M h t s t 9 r 1 d e 1 5 t d 8 > a a w d z z d t c t 9 1 r 1 m P d d / { ( L U E P N G ",
"- 6 > - @ * < = @ # d L ..' M     I *.o   ( ' X X U / X   J U X X Y (     _ ..  X O.:..   ' { .   m [ &.R r 1 8 1 4 - * 1 : 3 < ",
"t 8 1 5 = - e c e 8 g g A H ' @   N {     L P     D ^     S (     L R     E @.    { :.    { O.    L O.F z 1 t u M l   o 7 r 3 q ",
"x t t O.O.t l b | S 1 P ( Z { K X s E     L S     n U     N E     P G     ) [     ) *.    T T   t <.K K [ e c ( L 0 , S { v d z ",
"a 7 2 S z > A & 0 G v S - q ^ E L d d     S A     F E     S '     H Y     ( `     I {     M L h { L z z 4 3 { L X 1 B M 3 3 g i ",
"y f d 8 : s S 9   @ E ( > N ` L ( Q y     z M     S E     S {     U ]     _ {     S )     n ^ U A M S S - P T     M Q C @ t e 9 ",
"d M d j M e z t   - g =.( E E L L I R X   S P     G { X   T +.X   ` ) X   O.O.    ` #.X   M H f u i L O. .P -     N / S t t t t ",
"d d l b e 8 h d 1 U k t ' { P D H c S S d L O.N h ) O.L Z O.O.S C 2.O.E U <.<.L P O.} P M S Z k z M E ` S @ r M g A L d 1 1 g t ",
"z q d z r t v z t N L p s O.O.L I f t H U Z N T ' ~ Y { { U F ~ O.` { O.O.L S { O.C A E M l z z z Y ' V @ < P <.E S z t 0 1 k M ",
"M z t s t d A z 4   o T 9 1 @.{ G d t z D C - M L   X ' U X X T ^ X @ +.R   + O.D   4 F d 8 z C F I d - 5   @ ,.L z d l t p z z ",
"S S i 0 s z Z S 0     Y z   7 ' z z d z v M S F t     ` T     U P     O.L     E k @ d l t 1 c L T z   t M     ' m d C d e h z e ",
"v h 9 { <.g A K <     J M     < N P i / { c E  .r     ( E     ( W     { S     E J z 8 ( ..p S { c     W S     ^ z l M { ` d B g ",
"z M i L g : L z 1     U z     e t S d x t > z ) { X   ..U     ( L     E z     F n z 5 b r > I C       O.L     W H N z L 4 - B z ",
"z z z z 1 v N q ,     / M     ' n   z z 1 u b S ( M X E S     ( V     I t   e z e p z 8 - M d $ 1     O.L     E P S L M % d F i ",
"B d s A T L z d 8   o E M   X *.]   o L S f t l t z N L S     ' G     K d e H t t s p k E x   d S   X O.S   X T A K A G P U S h ",
"N d d v M S S m z J U E F N L ( ] E k 8 b z d d y M R P S F P { O.I B L M A x d d d a P x X t +.:.H U O.( A S { L U M A I d y M ",
"z i M z L S S M p ' | F M / E z M O.$.x 1 A M r l B h z A Y O.^ P #.( U S t e d l z Q C X d  .O._ -.<./ U ' ] { H / N B M 7 8 M ",
"f n L A S g Z M   B ' .   S P X   A ` -   - M b d M t 8 A U L +   A _ L M d l N z I V     L *.-   K *.@   G *.@ o O.U M z e t h ",
"z z M d z t E S   d T     M U     z (     t l A M z e d z U ]     d E z t j c D L z       v '     n {     P 3.  X &.L c v d u z ",
"h z i S { v O.L   d E     C P     A X.X   L P & S H b { ` N { t t H d P / k P ` M @ 8     z E     Z {     S *.  o O.M ( #.M z V ",
"v d d z e 8 ..A   t ~     z I     v (     M (   , L L N 3 8 P L ` V t M 1 > O.R   8 U     N ) X   m _     L *.  @ | z N r 0 M V ",
"V h L M 2 d E z   B {     M /     d L     z {     < R F - p I H m z V z @ M K     M ~     U *.    d (     A }   X ( M z 4 B z z ",
"x A Z J P z M q   C '     L { O   n ~ X   C Q X   e z ) U C K z 2 d A b S c @     A ~ X   ' #.@   M (     R E X X L M S L V z d ",
"A M n N z 8 I M 1 L ] L C  .O.z d U  .L z T ( H M X.N t T B M d 8 y z z z # d J G ) ^ A U @.:.' S ` { R P { ( Z 9 b K M d z z v ",
"z w s d r d &.P d M K &.O.J N U P ^ W { { Q G _ O.E L U ! A M d t f z m A p m { ] S v T ,.W P $.( L ! O.{ S M ) x z B z l M z M ",
"A z z z s S E k e   X S T     A { @   S *.@   A U o 6 ..Y M A A z k N d U Z X M +.@   C -.@   z / + X J ' O   M U S z l d N V V ",
"S A l z z z z g 9     M E     B $.    N &.    f H d W W M z B S A M A t z z f z T     z O.X   d +.    k O.    z E N z t M S S A ",
"x z a G ( t g M t     z ) X   S *.    L 3.o   l O.&.M { { d S ( R d Z ( E n ( O.A     z O.X   Z 1.    z O.    d S c h L { M P B ",
"v M g z t $ A F e     z ~     S  .    U 6.X   S ` u q C q 3 O.M ; c M B 4 8 P ( F     z O.    M O.X   z } X   u z g J n - 4 P c ",
"v B M d @ ; d g 9     v U     M O.    L 3.X 2 ) F 1 t 9 ; T M X @ = P L 1 d L z M L X 7 }     z O.    S $.    p m d P s 3 0 v v ",
"M m z n d 7 t p t     N ( @   E <.O   U 1.c ( v s t d d U J   1 U X - H A z g 1 V ;.P t ( -   L O..   A E X   z b u M A P t i f ",
"B S b z s 7 m z z K S E O.E E :.6.O.K X.( L c t d d z L M o 1 ( O.L 9 < n M p y E S A N D K S { ( Z S ( U H M o.N M B C z 3 e v ",
"N z k z a 0 S S e ) | P U { O.W ' <.O.O.S p u n M Z L b O d O.) ~ O.X.z 9 L L z C p t A K F E S B U ] L F [ #.E u E I H h 4 z B ",
"z M d d e 5 H z   L -.X X P { @ X A { ' H p d A M ~ z     / O.X   ( ( @   1 A A t q z v z B d     M T X   C _ X X ' A l k n A M ",
"v M d t - q n a   K O.    L +.    L O.A N i d S ^ d X     U {     ( (     9 t M z z k d r d V X   A {     k T   @ <.z 9 v A l d ",
"z d i A M d S z   L ;.    P *.  t O.m U ' z L / d X d     L O.    ( ]     L S @ d m e L L e G S   C O.    A *.  O %.z L ` d e M ",
"z d 7 t 2 # Y z   V *.    S ] f ] L N A 1 q ` z   8 ~     T O.    _ {     L O.  X d f n 8 @ t S M C K     U 6.    ' C A 2 % d c ",
"z t 8 r 2 - S d   B {     z { ` A M A t 3 L v     C W     L `     ( O.    P >.    @ A b % 4 t B P O.G     U 4.  X ..Q c # t z d ",
"h z d d L z M t   S { .   L S M S z z M U N +     S ' X   L X.X   ( O.X   } *.X   t y L F d f S M ( ' X   E &.@   E P M A z d h ",
"z U N r C b S S e ~ { S K ] d h B d a d t X d A N Q O.( E #.O.( ' 5.<.L E *.) ( ~ { m 4 S U u z A M L J N {  .) M V k M J z B z ",
"A U J M l M L M t m S ' L h B N z M S - O d T O.+.Z L O.*.~ L &.3.{ } *.O.P A *.` A I c t ( S H S l S U ~ A M ] D G C N Z m M k ",
"L U J A L I ' N 1   i P 8 z N z g Y b @ z @   U L     { } X X ( !   X ` ( .   S T X   ) h = ] ( J M A C S z + z S P L z N M v S ",
"N L Z J T S I M ; 4 L z t G v t M z   d {     M A     { {     T !     E {     B S     K P   4 U K m z M M M z d v E G z z z A L ",
"S A S X./ z d 7 H { z { { M B S j     / 3.    L U     ~ (     ~ (     { :.    b Z     P S     1 H Y d U T d U / z S m ' _ c G B ",
"S N G L 4 X d E O.C f D 2 % N n @     U O.    S L     ) )     U I     ` O.    M H     E P     x d E R M ; ; A U L c l M q 4 L N ",
"L A S h X - O.1.B i D h ; z l @ d     S (     B S     ( (     Y L     E T     z L     U Y     ' z @ { H X t M h z M u t O t n v ",
") I S z u z E M z M A k L z   t O.@ X { O.X   P L   X U | X   ` [   X / U X   H T X   ~ (     ( (   @ C L L M z s G S z L W L ! ",
"W A z d e t 1 1 L z e d , X r Q O.U W =.O.L A ( L M C ( } E U <.( S U { ^ S C P U S S E U M L { E N 9 < M L s z M K S Z ( { ` +.",
"N l z d r e s r S l 8 y . u U T A S ` ' E E L T M z ( <.{ { >.{ U $./ T ' E Q F ) %.' E E :.1.( S ( ..b t S g z D A S P U ( E L ",
"A l d d 8 s z l ^ z - - 8 Z N z z z M V V d d S t l *.$.R z A A L P z A M v z F { H L U ~ O.{ L K U A S M v A M D S V V U [ K N ",
"M d t d i t l m { a   < M M f t d z d g k d d d a S H J J z M Z z M z N 0 d A F A d n J U A M A S z j z d 9 g N V L V L P L H C ",
"y p t G U s A P ! > X { +.z x b h d e H I d t d S z t O.O.d M n z S b { T M ( z A M M [ ( d z L K M z J ( d d S E I L :.o.i c z ",
"z y d z > % F A I 9 1 P e - l z h g e f 4 @ y x M d M B 2 > n t d N x A q 9 S r d H C z ; - Z L N z d z 4 < m L R J L S 4 - l z ",
"c z M w @ 4 t g K t t d + 8 z b d d t 8 @ e v M d t M M 4 t k z d z z q : 8 d d M P B t $ t A S M d c z 8 d A L A L H d - q m M ",
"V S v z z d t A F 1 8 c z z l z d i t t z S S v d t v S S v f z B v z z S z y A A M d d v M x B d h A S E T S L M Z v v z B d z ",
"N M z d t t z A P t 2 B v d d g d d i z M m S v u f M z h M z V S x B i d t y M d z k h x c z x v S M B S N S E d z z y z i e B "
};
