/* XPM */
static char *blast_furnace_side[] = {
/* columns rows colors chars-per-pixel */
"64 64 85 1 ",
"  c #161616",
". c #1D1C1C",
"X c #201F1F",
"o c #20201F",
"O c #242323",
"+ c #282726",
"@ c #282827",
"# c #2C2B2B",
"$ c #302F2E",
"% c #31302E",
"& c #343433",
"* c #383735",
"= c #3A3837",
"- c #3C3C3B",
"; c #403E3C",
": c #43413E",
"> c #444443",
", c #484744",
"< c #4A4946",
"1 c #4C4C4A",
"2 c #514E4C",
"3 c #53514E",
"4 c #555453",
"5 c #585653",
"6 c #5B5956",
"7 c #5D5C5A",
"8 c #615F5B",
"9 c #63615E",
"0 c #69655E",
"q c #656462",
"w c #696662",
"e c #6C6A66",
"r c #6C6C6A",
"t c #716E6B",
"y c #6F716C",
"u c #73716E",
"i c #78746E",
"p c #757472",
"a c #797673",
"s c #777874",
"d c #7B7976",
"f c #7E7D7A",
"g c #807C76",
"h c #817E7B",
"j c #7F807B",
"k c #83817E",
"l c #88847F",
"z c #858482",
"x c #898683",
"c c #878883",
"v c #8C8A86",
"b c #8D8C8A",
"n c #908C87",
"m c #918E8A",
"M c #8F908A",
"N c #93918D",
"B c #98948F",
"V c #959492",
"C c #999691",
"Z c #979891",
"A c #9C9A95",
"S c #9C9C9A",
"D c #A19D97",
"F c #A29E9A",
"G c #A4A29D",
"H c #A8A49E",
"J c #A4A4A4",
"K c #AAA6A1",
"L c #ACAAA4",
"P c #ACACAB",
"I c #B2ACA7",
"U c #B3AEA9",
"Y c #B5B2AC",
"T c #B8B3AD",
"R c #B4B4B4",
"E c #B8B4B2",
"W c #BDB9B4",
"Q c #BCBCBC",
"! c #C1BEB9",
"~ c #C5C2BD",
"^ c #C0C0C0",
"/ c #C9C5C0",
"( c #CDCAC5",
") c #D3CFCA",
"_ c #D4D0CC",
/* pixels */
"zjlyprzxftzbffAzjpcMbjqpjcMGVzcffdfqqfzafpqszbCSVmbCFGGAmVG~~jyv",
"kdsytrqqpzfbzfMVjscjcjjdjAVVGCVFbdf8qpxrqqprdbvVfbcxJNvmxmLKGGNc",
"dy9sprttaxzxfysjsjdpjjjjfccNZLCBxkfaddrrqpq9yxSvdqfVVVFVSGzsSTCz",
"russprqrrrfbjjjvqsppjccjzjsdMSczzxkkrfkzssypqfbmfrrbZbSSbFPNGPLp",
"cftatr77urfMVcbbjjjsfbcfsjjNMSzsspszsfarsNVAkepkfafbdfdbNmmxufkx",
"zcpdapfrzSvdSCNGSvcsyyvmfjdjjMjjkzyfpffdykMvzfzfdadfkbVxvGVCSkfd",
"hkxxzbprNvvfkLRGzpyryyzzJbzjjMjcbSVvkpaudeukSGaperkxbVbfxCZfkffz",
"bbhvkbbpzNcbjNbfAvrrrppfkffsdkccbGbxffafdVrpmkprqrfbzfkkzzNfrNzf",
"NZvZMxMpzbqekzzfJFzfatfvvzdvbbmvVmmVkfavJVdrpazrrpskfffzzcNNdzkz",
"VZbMzbZkjjvzzVzfbZGkbxkzbfkzVxmACVzNzkfzvvzkpbfrskskfzkVNmGCxxfb",
"VSvkzbpfdMNckVzffbMcxVvxJNbfkbVvVVxczfpdxmbvbmzpsfdfkfzbczGCVchb",
"bJLNkZZfMMNjzbzzfZbckakbbkkkfzbbxxvxbfftzbfpakVrqrqrqpdffzbfcdpx",
"kvMNzmmkkCSZvAAGZMcMjvczkvZjafffmvfzkfzzhVzazkafruereq8qqafdpudm",
"zjVMCvSVmbvBmVVJGZvLcdvjdMxcbbzaxbzmvfzzzmVVbkprufkpqq74rfppfprh",
"bfLPCFSbkbkxZAJmGUSVzjzpscdNbbzpkfkvVxxkkvvbfkfppfffaaVaqpcpvvpc",
"SbNFNLAxbkzfbNCbMDZJMMjpxvpdprdfvfffhzhxbxzfakhdafzfrdxfddhbVFvx",
"xbSmFSFbbzzahhdxxVjjcjpjhSarppfpfatpprrhzbzfatpapfzfrpvkrkVurkVx",
"eedVhvmSxxfathzzffeqfZcjzharprpfppftwtrtffffafparradurfrpbVxzffa",
"d64rfvfdghkhttrpkz6qcMccahhpatfrrtaprrr8phappttpurupw7qeqpxzzxxC",
"Cbq6pupvzhgpprrrkVc7jpszptpaptpptrqttrwwtfprrtt88qqqq854qqerkkzG",
"CllCzxDKK!_!H/JxLvnnZLHTFEEmJRVbPVlnBHBCV^^/JSbbPV!W/KFHKFCmmnhv",
"FKhhaatvinDFFNV4xBgtsmgvfznbzzf-hbtwrahBxtnVVSp1/SIKmCnngnhphpe-",
"Dgwwtte09rewap4:Ai85uukkprqprr7Op97528wrgwqgzr41)!Clnipaatga82,*",
"WN88e6u658w8er7-Dde0dugar44rpr7#Hgw5ghztwg88ppq>(Dvtuwtdawepee1:",
"TBaerrqqqq9rrf4>Fhueqrzpzprrfr7&hhaprpgprrprfzbq^Pfzfrqrawqppl0:",
"Kxiwrqqq7769rr>&Uxgeprfffpppzr4#Hkwwtwwgrprrppq1^Sfqqrqqe0trtt2-",
"de86477112>;1>&$ka067qrzpq7474> r85787167r4777--Vfp4r74>232714>&",
"zASdpfzzVpdbSJVffkrrrrppzpqrpfzzxbVVzbVVVbVbSSVbbVzfzfffrrkbzbVb",
"JRRRQ^QQRRPRRJJJVJJVbbSSSbffppffbzVJSJPPJPPJPJPJJJSbJSSSbbzbVbbS",
"JRQQQQ^^^RRQRRPJSPSSVfVbSVfzfpfffzVJSPRJJPRJJRRRJJJbJVbVzzfzVxfV",
"JRRRRQ^QQQPRRRPJVPSVSbVSSVVbzffVzzbSJRRRRRPRJJRPSJJVJVbbzzzfbbfb",
"pqqppqrrpsqpfprpffpfzzzzfppfzffzzzzzfppfzzzbfrffprrfpqpprrqpp7rp",
"&#O####O####+####OO.OOOOO#OOOOOOXOOOOOOO+#XO+OOO#OOXXO#OOOOO##OO",
">-#>>---------*-&-###&-&&--&-*$&&#&--#&-&&&##--&&&&&&--&&&&&&&#O",
"7>>4>>>111>>111>1>---1111>>>1>1>>1>>>>>>>>>>>>>->>>>>>11>>>>>>&#",
"r4>477qqq747447>74>>477q4777774111447477474114441174441774>141-#",
"f777qrrrrqrrq7777444q7r7qq74qqq4777qqrrqq47772477744q77qqq7477>&",
"zrqrrrpprrprarq4qrrq7sr7qq444rqqqrrprfprrrrq77w77r7rrrrr777q444-",
"1>->>1114411>,>1>>>>>11111>>1,<1411144111441>-*,11111441>1>>>>>#",
"..........OX ... ... .O.O...OOXOOOXOOXOOXOOXXX.X..OOOOOOOO.XXOOO",
"qq7141&>9lUBgpgwff7r411fBmKFFIe81pfbxbbaxVCggh->..O-ghhVSbrzf7qq",
"bbVbzV*1,eeghlurzfr71&prvxDCFIw=47pzhbbhhCBw5t28,XXX-wFzVrrrp>7r",
"SSSSSV4.$&<:tphrr47>#.1rivFmgBh$17rpzbabCI74w6<w*..X.O*,4qrr4-qf",
"zzbSRPV*X;:;1,55444>OOO-pgmdggt2#>7ppbhbw;:*+$**$X XXXX-#->447rb",
"xkalVPS8XO:;:&#*:qq>#&&$4waag0t%#&&177>-$++,,,<647; .$X#171,pqqb",
"hzhzbzHg:$;#-&&,*>p1&4r-=txgg88;4r$&-##&$1gEFhgnCBh4&O+#&;>77p7f",
"ggglBznx9,<xBnnebr77-&4OX:h8i28<qrp414>>;wgFllnSBFBCBg2-*-*>O&7r",
"haglhxhHg,:wxlbgfprf1-#. o2ieg0tqqfbbJf>;&:wgannBFFFHnnw,41zrX#r",
"pwphlghht;28hghgprpeh71X  $=8i8<4nimHDFe=#=14NhvxFxnDglhwegh!n&=",
"*q7wwg8n8+;0lgggeetpge8O  $O&8i3=thDBCCxt+=O>xlvlxgthhqt327aFBn:",
"r+&:08w2:;23glgttettlre8 X++$38;$>8pAmNh,O@&$wzdln8tBhBi;5idnnDB",
"CgOX#$::,08wrggrqerrdk2p5::;;<8;&ewqdixu;O,;;8w4wnx9nlht>8pglxmN",
"nxh14624719wrxuw729eghw3tDve>5w22nt0960l6$64;O$,76tlxCHt6wpgxkxh",
"nmCh822995159pgteq47emp=1hBFhi8;<8286211X#->=$$=855863t24hgzxgkx",
"mFlCg>42wt87qlhgvn8wtkh;*wmFDDFni0ta0956X.$-;;O#;2,2:;>#,ruhnhnh",
"Cbxnh3;;2ghbgtpfhndAFHh1#2gFxmFIFDlgdFt82$#*6ix>#;37,;O&:qpghnCn",
"ggggg6$-wffFVlpt8exmhgg*O,aNNvmCDHhwgBnnYFmBlmHFmprdt84O:8erwphg",
"pgtrgt#;6ghmKCxmatatgvi*;:ihhNvBDni5x!!ngxCKYI!FBxhvxli+129324qh",
"744gge+Xggkgxmxpggii8ha*3;1ghvzhgxi;gxhgweexnvmhipilangX;:,,,:28",
"*;,1g8;X65hp8wh98hd812;;8,$txxxhw88$328gtqtpggtwwerdkwDOX#=126::",
"OO=217;+XO&161;-&26w88<;7w&2aie6888+X;&380eexpw739edhrCa+.X*-#$#",
"w:$*>3-:$;+*&:>-;;4hw12+>88e22:,58w2 X;,7359apteq47evgnr<<:<56rp",
"hVxgh,.X-:O$;53:05532&<X++$2<=+$8wtg8X$;3749hddxx788ew818ehgfgph",
"wphz!h<#+;+$;<>-,;*=&$$$++O;52*+w088t;X+$4979wtww7ee2;$28thvbht9"
};
