/* XPM */
static char *chiseled_quartz_block_top[] = {
/* columns rows colors chars-per-pixel */
"64 64 256 2 ",
"   c #858578",
".  c #8C8C7F",
"X  c #8F8E83",
"o  c #8F8F84",
"O  c #909085",
"+  c #929287",
"@  c #939388",
"#  c #949489",
"$  c #95958A",
"%  c #96968B",
"&  c #98988D",
"*  c #99998E",
"=  c #9A9A8F",
"-  c #9B9B90",
";  c #9C9C91",
":  c #9D9D93",
">  c #9E9E94",
",  c #9F9F95",
"<  c #A0A096",
"1  c #A1A197",
"2  c #A2A298",
"3  c #A3A399",
"4  c #A4A39A",
"5  c #A5A49B",
"6  c #A5A59C",
"7  c #A6A69D",
"8  c #A7A79E",
"9  c #A8A89F",
"0  c #A9A9A0",
"q  c #AAAAA1",
"w  c #ABABA2",
"e  c #ACACA3",
"r  c #ADADA5",
"t  c #AEAEA6",
"y  c #AFAFA7",
"u  c #B0B0A8",
"i  c #B1B1A9",
"p  c #B2B2AA",
"a  c #B3B3AB",
"s  c #B4B4AC",
"d  c #B5B5AD",
"f  c #B6B6AE",
"g  c #B7B7AF",
"h  c #B8B8B0",
"j  c #B9B9B1",
"k  c #BABAB2",
"l  c #BBBAB3",
"z  c #BCBBB4",
"x  c #BCBCB5",
"c  c #BDBDB7",
"v  c #BEBEB8",
"b  c #BFBFB9",
"n  c #C0C0BA",
"m  c #C1C1BB",
"M  c #C2C2BC",
"N  c #C3C3BD",
"B  c #C4C4BE",
"V  c #C5C5BF",
"C  c #C6C6C0",
"Z  c #C7C7C1",
"A  c #C8C8C2",
"S  c #C9C9C3",
"D  c #CACAC4",
"F  c #CBCBC5",
"G  c #CCCCC6",
"H  c #CDCDC7",
"J  c #CECEC9",
"K  c #CFCFCA",
"L  c #D0D0CB",
"P  c #D1D1CC",
"I  c #D2D1CD",
"U  c #D2D2CE",
"Y  c #D3D3CF",
"T  c #D4D4D0",
"R  c #D5D5D1",
"E  c #D6D6D2",
"W  c #D7D7D3",
"Q  c #D8D8D4",
"!  c #D9D9D5",
"~  c #DADAD6",
"^  c #DBDBD7",
"/  c #DCDCD8",
"(  c #DDDDD9",
")  c #DEDEDB",
"_  c #DFDFDC",
"`  c #E0E0DD",
"'  c #E1E1DE",
"]  c #E2E2DF",
"[  c #E3E3E0",
"{  c #E4E4E1",
"}  c #E5E5E2",
"|  c #E6E6E3",
" . c #E7E7E4",
".. c #E8E8E5",
"X. c #E9E8E6",
"o. c #E9E9E7",
"O. c #EAEAE8",
"+. c #EBEBE9",
"@. c #ECECEA",
"#. c #EDEDEB",
"$. c #EEEEED",
"%. c #EFEFEE",
"&. c #F0F0EF",
"*. c #F1F1F0",
"=. c #F2F2F1",
"-. c #F3F3F2",
";. c #F4F4F3",
":. c #F5F5F4",
">. c #F6F6F5",
",. c #F7F7F6",
"<. c #F8F8F7",
"1. c #F9F9F8",
"2. c #FBFBFA",
"3. c black",
"4. c black",
"5. c black",
"6. c black",
"7. c black",
"8. c black",
"9. c black",
"0. c black",
"q. c black",
"w. c black",
"e. c black",
"r. c black",
"t. c black",
"y. c black",
"u. c black",
"i. c black",
"p. c black",
"a. c black",
"s. c black",
"d. c black",
"f. c black",
"g. c black",
"h. c black",
"j. c black",
"k. c black",
"l. c black",
"z. c black",
"x. c black",
"c. c black",
"v. c black",
"b. c black",
"n. c black",
"m. c black",
"M. c black",
"N. c black",
"B. c black",
"V. c black",
"C. c black",
"Z. c black",
"A. c black",
"S. c black",
"D. c black",
"F. c black",
"G. c black",
"H. c black",
"J. c black",
"K. c black",
"L. c black",
"P. c black",
"I. c black",
"U. c black",
"Y. c black",
"T. c black",
"R. c black",
"E. c black",
"W. c black",
"Q. c black",
"!. c black",
"~. c black",
"^. c black",
"/. c black",
"(. c black",
"). c black",
"_. c black",
"`. c black",
"'. c black",
"]. c black",
"[. c black",
"{. c black",
"}. c black",
"|. c black",
" X c black",
".X c black",
"XX c black",
"oX c black",
"OX c black",
"+X c black",
"@X c black",
"#X c black",
"$X c black",
"%X c black",
"&X c black",
"*X c black",
"=X c black",
"-X c black",
";X c black",
":X c black",
">X c black",
",X c black",
"<X c black",
"1X c black",
"2X c black",
"3X c black",
"4X c black",
"5X c black",
"6X c black",
"7X c black",
"8X c black",
"9X c black",
"0X c black",
"qX c black",
"wX c black",
"eX c black",
"rX c black",
"tX c black",
"yX c black",
"uX c black",
"iX c black",
"pX c black",
"aX c black",
"sX c black",
"dX c black",
"fX c black",
"gX c black",
"hX c black",
"jX c black",
"kX c black",
"lX c black",
"zX c black",
"xX c black",
"cX c black",
"vX c black",
"bX c black",
"nX c black",
"mX c black",
"MX c black",
"NX c black",
"BX c black",
"VX c black",
"CX c black",
"ZX c black",
"AX c black",
"SX c black",
"DX c black",
"FX c black",
"GX c black",
"HX c black",
"JX c black",
"KX c black",
"LX c black",
"PX c black",
"IX c black",
"UX c black",
/* pixels */
"` / { ' N G ` ] ~ [ ^ ^ ) { ] ` ^ ` ~ T Q E ! W E E O.] _ W R T W E / $.#._ ' ^ / _ ^ ! S E E E W P A H W ~ ) / ` ] ) W ` ] ] ` ",
") ( ^ ] ~ / / ^ _ E (  . .` ) ' ( ^ U Y A S J A c H ( ] ' X.) T  .` ' #.;.+.^ E / } ( ) ) ! Q E ^ N f l K K Q / '  .' U f _ ' _ ",
"E ~ % 2 2 2 4 3 < = 1 6 4 3 < 6 2 1 % o o . # o +   $ 3 5 4 2 : 3 6 9 q 4 2 2 < 5 3 , 1 6 , < 2 < 2 1 < = X ; < 6 7 6 > 5 F ] [ ",
"E E 2 B D J B S n V F H A G S Z V A v x u q r i s s B D A S D S S L P P Z B C S Z C G D C z D D c l V V n M V b H D H V R o._ ^ ",
")  .6 Z R ^ R Q ( I ^ E ! E U Y P R E _ I P I P T E ( ^ T R R ~ W ^ ^ R U T E U I ! E Q P E ^ F F z F N l C k D / ^ E T L } ( / ",
"^  .3 S P | O.&.%.@...+.X.@.o.+.X.X.%.;.#.@.-.) &.*.*.*.@.] J Y ) *.&.o.+.%.*.%.+... . . .| :.+.%.] ~ !  .Q Q *.^ @.I K / #.' ~ ",
"T ^ < I _ %.Q [ o.' ! ^ Q ~ Q ) ` ^ ^ ' ~ `  .` _  ./ ^ _ E 8 S { ;.| ] ) ' ) ' ] _ T ) / P W ' P ~ ^ ( S V Y ' D o.d A E %.^ ~ ",
"{ ) < F ' *.) ]  .o.( E _ ) _ @.@.@.'  .)  .( ) ` { | ( ~ ~ 3 m ` %.' ` / W E ~ T ^ Q _ ^ ' ( ) N C ^ [ W P ^ ' ] X.0 C ~ ;.^ Y ",
" .} < F ' -.} ] ^ X.' ` ] { o.+.O.O.^ o. .] L n ' ' { / ' ! < J } *.' ( T P W R L Y E ( / ^ L / ^ W ( ' ] _ [ $./ ' 0 H Q #.G [ ",
"` ' 2 A [ :.' ~ ] { E ] X.| O. .O.O.|  .| ' _ h I ) ] ' K G < U } ;._ / E T R T E E P ! H P Y ^ W ^ ! E ` | O.&.` ~ i D ~ _ ) | ",
"] ` 1 A ) :.] ` ' ' ; u t t e w w i u q q t q - $ Z { ' ) G 7 L / @.W Y G U $ , 2 1 ; > ; * 4 < 6 5 4 , 6 R O.+.[ ! 7 d Q o.P  .",
"/ ~ - S W #.) ' +.` 9 C S f n n v U R T T Y S k g ] ' )  .) 8 K / @.A v L P , f v g e j n n v b N N V C F =.} { E { w A ) &.[ ( ",
"P U , Z J ../ ) $.{ q H T q m A W ]  . .] ` E L P +.` L ` +.r C ^ %._ / U G , n B V V F I P L P U U P K R >. .Y /  .r S ( =. .~ ",
"Y H ; Z H $._ ' { ] q A ]  .o.^ #.=.,.$.:.@.L V & j H ' ] _ w H L @.[ W ] ( 1 v H ` ..@.$.+.+.O. .} A A E +.[ } ` ` 8 G ~ *.` ! ",
"U E 1 C U B ~ ' [ ' t D ^ 2.@.| ] | L ' } ' r N s q f ' ' / 1 k R *.| / ) / 7 Z E [ ) ^ / ` ] [ ' ] u H C ^ | +.[ ( 3 n ! &.] T ",
"Y F & v Y X.~ ' [ ' e C ~ >.) _ | _ ( ]  .^ 6 F ! =.` ] _ Q < f E =.&.O.` ^ 9 Z E +.] [ ^ ~ ` | ' _ 5 Z L @.^ [ ( ' ; f Y #.P n ",
"( Y $ n I O./ ) R ^ e F / X.E _ J ] ^ ` { ..0 S ! *./ ' Q W , z I +.X.[ / Y 0 C W $.{ [ / ( { X.' { 9 C / +. .{ ^ ^ 6 m H [ Y x ",
"*. .@ z U +.~ ( W ) 6 V D ^ ` ] ) .._ / ' ) 7 G Q &.{ ! N D 2 N T *.^ ^ [ ' r S E $.} ..] ]  .;.| ' 4 p ( *.} ) ! Y 2 M F { W Q ",
") ) O v P #./ ) ' _ 8 D M J a 7 , U ] ^ ` ' t P | *.] ^ F n # d E &.U / ~ ' 6 C E +.] { ..{ 2 q r i s F ) *. .] ]  .7 n ^ *./ G ",
"B N - F I | ~ L ~ ) w B G A S S F *.[ / W / q R ` *.! ! f p + N Q $.{ ] ' ^ 3 M ! $. .| .._ 9 n P L D K ^ =.X.K (  .q M W o._ [ ",
"| ] 1 D W @.W R W T 5 H E ^ ^ ` E -.| ' ^ Q 9 Z W %.D S J ^ 4 G ^ +. ._ ' ` 6 V ! &.+.}  .' 6 T ( / R R _ @./ R Q X.0 S ( $.^ F ",
"] ] 5 V E +.^ Q _ ) V +.@.:.<.>.*.*.[ { ) E y S ^ *.' { ' E , F / #.' ^ ' Q 2 M ^ +.[ ' ^ J V &.%.%.-.] ' %.t U Q Q 8 F ^ =.' _ ",
"{ [ 0 U / #.^ ~ ^ [ _ ) ) ..o.K E  .^ L F R 7 P I *.{ [ ' Z = c _ *./ / ~ P 6 B T +./ ~ ` _ ' ^ _ ] ] v x R G I S / 9 S Q =.{ ` ",
"+. .3 Z ` -.W ! ` ) / ' [ +.@...[ _ ` E J / 5 m E ..`  .] ` < l H } ^ _ T Q < p S [ W ( ' ]  .) ` ] ( k F ' ' _ _ ' 7 H | =.' ' ",
"[ O.7 L } :.| _ ~ _ ' +.`  . .| _ F ` ^ E ^ > x ^ &.' X.| { 5 V H +.{ { _ ^ 3 s H ` F ! ^ U ) ( ` [ ! L L ]  . .{ ` 0 D ~ +.} { ",
"[ ! ; A ) ;. .] ^  .&... .] P ] ^ K J { n W q J ` *.{ _ o...q n U &.{ [ L ~ 9 x F ~ P I ' { ' R K O.| )  .| o.+.%._ 9 T | =.[  .",
") ~ - m L I f : q q - 5 w y e u w + 3 y q t f T ] :.| ~ ^ [ y n I %.[ { E ) 0 n F B 6 < 9 q 8 t 0 0 r 4 9 8 w 6 t q u U ] >.X.| ",
"/ I > B E K F C L F 6 Z S D Z D V B M Z Y V L W { ,...] ] | w x Y +.' ` ) ^ , D C K x B F G n J A L Y A G J F M G A N Y _ =.[ } ",
"~ R = N ] P W ~ T E _ / ` E T Y ! U ! ~ / E E ^ ~ #. . ...o.q D E #._ ) ` E - Y D P P E [ / T ! W P E W ^ (  .] ^ Q W _ | ;.| ' ",
" .E z &.+.X.[ { _ +.=.=.-.+.o.+.$.>.,.,.&.%.$.+.X.$._ ..' { y A ^ %.| } } ` z +.*.$.&.%.:.*.$.$.*.*.$.&.#.@.,.-.@.*.,.;.=.,. .} ",
"@.} / _ ' ] ) E ` ' ( } { ` ] ] / ] [  .X.X.` ' ! ) ' ' | ] q F E o.{ #.O.o. .] { ' / _ { ! ( } } ' ( ] [  .' [ +._ O.o. .` ` | ",
"O.X.` ) X._ W P I | .. .'  .] ' / ' ' _ X.*.O.| ^ _ _ ) [ { y D ) @.(  .' } { ) _ ) ' | _ { / ` { ] ( _ } ` F _ E _ O.+.[ [ [ X.",
" . .] ` P ! z b M / ] | ] )  .' ^ ` ]  . . .O. .{ ] } ' ' ` t V [ +._ ( } ' ! ] R R ~ ] W _ ..'  ...{ _ ) / ] [ ' ..} X.[ ] [ } ",
"| %.{ ! ~ G P F M L { { { _ ' } [ ^ ^ } ' O.+. ...} ) ^ | [ 0 I Q E V F ^ ] P P E Q } { ^ ! ' { ..[ } { ( ' X.' |  .X.+.~ {  .O.",
"+.X.* 9 5 1 7 9 9 , r e a q t 0 q e t y w y p r e S  .[  .o.r C D ( H S E _ > 5 6 t 6 w 9 e a t u y e 8 q 8 9 6 w r u u y L o.X.",
"o.$.7 k V V c U Y L L D P H D G U K J ! S F P J J +.] ` [ ' 1 u n [ I D Y ( 7 n Z F M F F U H J I J F A F A D C A D F L Q ;.X.+.",
"X.#.2 P Y T ^ P L Y ^ Q F ( Q / Q ! ^ ( E ` ] ( ~ =.] ' ' } 8 c N _ ' | _ ( 6 H F T ! / ` ) ` ' ^ L ! E E E R ~ H Y T ! ( ;.} o.",
"' ` 1 H W +.$.+.O.' O.=.` ;.&.&.%.=.-.*.*.%.Y T ( >.O.X.| ] 6 Z ~ $./ ] _ W 8 J I +.%.-.$.+.@.*.'  .&.#.+.@.+.$.'  .I I T -. . .",
".. .: F ^ =.| ` ]  ./ ' ] +.} ) ) / ) { ( ] y S ^ -...O.@.O.6 x ^ &.^ ! Q R 9 F _ ;.( ] ) ^ ` ) Q { _ [ _ {  .[ Y P 4 S E -.{ } ",
"'  .5 G ~ -.+._ ^ +.+.{ { ' { ] ' ' ' } { [ q A ' =.{  .$.%.r F ! @.[ ' ^ [ 9 A ~ *.[ | ` _ ^ Q ^ ' ' ]  ...o.} L L 4 A Y +.' { ",
"/ { < N / =.} _ ` [ `  .) / ] _ _ [ ..[ P ' q F ) >.o.#.@.O.t R ] *._ ' ] { > A / *.[ ' _ ) / ' ' ) [ ] ] X.X.o.( R 5 h n +./ R ",
"|  .1 Z _ *._ E W _ ( ' X.' ` _ / { { { ' } q A ` -.X. .@.*.a K ^ -.{ [ ^ { 6 Z ^ $.[ | E ~ / [ ~ I W ' } ]  . .' P < f ( *.E _ ",
"[ ' 2 D T *.] ' E / ; t e w 6 q w P ] ] ` | 0 A ^ =.{  .O.+.t F ( @.P P ~ F 2 B E $.] o.( [ > 7 = , q 3 a K [  .` ( w Y [ #. .| ",
"[ X.3 S W -.[ o.} ` 3 D F Z B D L %.| ` ' #.u F E ' ! { [ [ 6 M R o.V m P P : f S ] ' ' ' E < v A f S D J O. .| ' ^ q I / :.X.[ ",
" .X.3 F Q :.O.' o.} 4 K U T ! T ^ %.{ { { ' 9 R _ %.{ ] | ..e P ^ =.! ~ ^ K % a ) +.( Q ^ ` 9 G T U G F E $.' ) ( I 0 L ! *.' Q ",
"}  .5 K ) >.) ( ' o.7 D U ] *.+.$.:.[ [ ' ~ q J E $._ o.o. .t F / =.' { ^ U < v ~ :.' / ( ..F o.+.%.b S Y ..) / ( ` w H / *.{ L ",
"X. .2 V ' ,.] ( _ ) w S W +._ ' {  .] ' ) Q q J E @.) { |  .q L / *. .} ] W : x H %.^ ~ / ~ W ) { ] 8 n A -. ._ [ O.w F E +.' ( ",
" . .3 J ^ *. ._ ) { e D P ..) ! ( [ ) ( I ' q Z ^ @.E ^ G Z 6 D ^ +.} | E / 6 z P +._ ' _ _ ( ' +.{ 9 9 b O.[ ] }  .9 F Q  .[ ) ",
"}  .< H ' =. .| / } y I L $.Q R ^ E / W _ / 8 Z ^ } n L T K < V Q #.{  .' ` 1 N R @.( ' R I / [ %.( < D P *.] [ ..O.e H R &.{ { ",
"{ O.5 L | >.X.X.O.{ q m ! @. .^ E Q ( ~ [ ) 6 V R _ n / ' ] 6 V D } ! ' U ( 5 A E $.}  .Y D _ } |  .8 K Q #.T ^ { [ t b W %.{ ' ",
"{ ` , F ' <...X.+...5 F Q E s w 6 8 r 0 6 q p H U ^ P / ] O.0 n D ~ J [ ^ _ 8 C Y T p r , * e e q 0 a E E #.) W ! / 8 , f @._ } ",
"} { < Z / ,.X.[ +.+.q D L J P Y L G Y K K K F R { =.] |  .O.u M N T D ' _ _ 7 B U T H v x x C n J D Z J Y #.'  .| o.1 b T $.[ { ",
"] ' , D ` 1.@.} } #.t C ] ] ] [ ....o.{ ' |  .} { ;.~ ' / ' q x m E J ^ _ ' q I ( ) ! P S Z Q E ~ W ( R '  .E _ ( | < b Q -.#.O.",
"{ ' < J ' <.+.O. .o.Y O.*.>.&.,.;.,.<.,.1.1.1.,.,.,.]  .' ^ 8 n M Q G ( ] ' A %.*.*.$.,.[ ] ..o.=. .%.@.#.o.E T E ( 9 F ^ ,.:.$.",
"! ] 5 P ` :.&.| +. . . .R ^ ( ....o.+.+.$.#.@.X.' ' } ' ' ! 7 Z ~ ../ E ~ ^ ) ` '  .{ | R E / ) +.$.| ( ) _ / '  .` 6 C ~ -.' ^ ",
"^ [ 6 G / -.#.+.$.@.o.#.} O.` } ` | [ |  .X.X. .O.+.+.O._ ( 8 J E ] ' ' / Q ~ Q _ ( / [ _ ^ } ^ O.>.*.( T T ) ] / ` 7 G ~ / [ ] ",
"E E < A ! ;. . .O. .[ +.+.] ' _ ) ' Q E ' ' } [  .] } ' [ T q Z Q *.' _ ( ~ E D ( ' ' '  .! o.' ` | O.Q _ ] ] ' / _ 4 P ' *.] +.",
") T : A ~ #. . .( [ X...$.[ ( ' _ [ _ ' ` ' _ ' _ _ ` _ ' _ 4 V V O.! ' ~ T ~ C W ) ^ ) ' W ) X.) ^ ^ R [ ' ^ ! ' W 7 K [ :.%.{ ",
"' T 3 D Y U i u e t r 0 u q < 9 e y y e w w y w 9 9 q q 0 6 i C H U u 8 6 < 9 9 3 8 q 9 7 9 2 < 6 1 y 9 8 w w q 8 6 6 K ' ,.*.| ",
"' ` 6 V G F P P F L F F F D N H A A V M G F F D L H G S A V D F K U N C v N m K B n Z V A B n k B h n m S A F S D C D J ~ :.;.| ",
"I ' 2 S Q K Y ` ~ ! W ^ ) [ ( E R W E Y Q U E Y T E ( ! D : m ~ W T T E U I Y / ' B Y E U P T E Y G Y E T R W I T W T T ` ,.*._ ",
") ^ v  .X.[  .#.@.*.%.-.<.-.>.@.+.+.+.#.X.X.+.-.X.%.o.} / p c ! #...O.@.@.$.&.#.,.%.@...+.O.O. .+. . .+.@.X...]  .| _ &.| -. .' ",
"K T / Q F T ( ^ } ' O.{ ' { +.} @.` { Q ^ _ ~ P E ' ^ ~ T Q ! I ! Q ^  .) ' ^ ^ O.#.Z B ! E Q E ~ ' ( ^ ^ ` ' E ` _ ) ^ ] ` _ ~ ",
"/ P E E m R @.-.$.{ _ ^ / X.X.} ^ E Q T E E Q ! ~ ^ ) ( ! ^ ~ Y L G Q [ W ' ( Q | #.) H F ^ ~ W ( Y W T Y Q _ / ^ ` _ E Q ! ' ) "
};
