/* XPM */
static char *chiseled_quartz_block[] = {
/* columns rows colors chars-per-pixel */
"64 64 256 2 ",
"   c #838377",
".  c #87877B",
"X  c #8B8B7F",
"o  c #8C8C81",
"O  c #8D8D82",
"+  c #8E8E83",
"@  c #8F8F84",
"#  c #909085",
"$  c #919186",
"%  c #929288",
"&  c #939389",
"*  c #94948A",
"=  c #95958B",
"-  c #96968C",
";  c #97978D",
":  c #98988E",
">  c #99998F",
",  c #9A9A90",
"<  c #9B9B91",
"1  c #9C9C93",
"2  c #9D9D94",
"3  c #9E9E95",
"4  c #9F9F96",
"5  c #A0A097",
"6  c #A1A198",
"7  c #A2A299",
"8  c #A3A39A",
"9  c #A4A49B",
"0  c #A5A59C",
"q  c #A6A69D",
"w  c #A7A79E",
"e  c #A8A89F",
"r  c #A9A9A0",
"t  c #AAAAA1",
"y  c #ABABA2",
"u  c #ACACA3",
"i  c #ADADA5",
"p  c #ADADA6",
"a  c #AEAEA7",
"s  c #AFAFA8",
"d  c #B0B0A9",
"f  c #B1B1AA",
"g  c #B2B2AB",
"h  c #B3B3AC",
"j  c #B4B4AD",
"k  c #B5B5AE",
"l  c #B6B6AF",
"z  c #B7B7B0",
"x  c #B8B8B1",
"c  c #B9B9B2",
"v  c #BABAB3",
"b  c #BBBBB4",
"n  c #BCBCB5",
"m  c #BDBDB7",
"M  c #BEBEB8",
"N  c #BFBFB9",
"B  c #C0C0BA",
"V  c #C1C1BB",
"C  c #C2C2BC",
"Z  c #C3C3BD",
"A  c #C4C4BE",
"S  c #C5C5BF",
"D  c #C6C6C0",
"F  c #C7C7C1",
"G  c #C8C8C2",
"H  c #C9C9C3",
"J  c #C9C9C4",
"K  c #CACAC5",
"L  c #CBCBC6",
"P  c #CCCCC7",
"I  c #CDCDC9",
"U  c #CECECA",
"Y  c #CFCFCB",
"T  c #D0D0CC",
"R  c #D1D1CD",
"E  c #D2D2CE",
"W  c #D3D3CF",
"Q  c #D4D4D0",
"!  c #D5D5D1",
"~  c #D6D6D2",
"^  c #D7D7D3",
"/  c #D8D8D4",
"(  c #D9D9D5",
")  c #DADAD6",
"_  c #DBDBD7",
"`  c #DCDCD8",
"'  c #DDDDD9",
"]  c #DEDEDB",
"[  c #DFDFDC",
"{  c #E0E0DD",
"}  c #E1E1DE",
"|  c #E2E2DF",
" . c #E3E3E0",
".. c #E4E4E1",
"X. c #E4E4E2",
"o. c #E5E5E3",
"O. c #E6E6E4",
"+. c #E7E7E5",
"@. c #E8E8E6",
"#. c #E9E9E7",
"$. c #EAEAE8",
"%. c #EBEBE9",
"&. c #ECECEA",
"*. c #EDEDEB",
"=. c #EEEEED",
"-. c #EFEFEE",
";. c #F0F0EF",
":. c #F1F1F0",
">. c #F2F2F1",
",. c #F3F3F2",
"<. c #F4F4F3",
"1. c #F5F5F4",
"2. c #F6F6F5",
"3. c #F7F7F6",
"4. c #F8F8F7",
"5. c #F9F9F8",
"6. c #FAFAF9",
"7. c #FBFBFA",
"8. c #FCFCFB",
"9. c #FDFDFC",
"0. c #FEFEFD",
"q. c white",
"w. c black",
"e. c black",
"r. c black",
"t. c black",
"y. c black",
"u. c black",
"i. c black",
"p. c black",
"a. c black",
"s. c black",
"d. c black",
"f. c black",
"g. c black",
"h. c black",
"j. c black",
"k. c black",
"l. c black",
"z. c black",
"x. c black",
"c. c black",
"v. c black",
"b. c black",
"n. c black",
"m. c black",
"M. c black",
"N. c black",
"B. c black",
"V. c black",
"C. c black",
"Z. c black",
"A. c black",
"S. c black",
"D. c black",
"F. c black",
"G. c black",
"H. c black",
"J. c black",
"K. c black",
"L. c black",
"P. c black",
"I. c black",
"U. c black",
"Y. c black",
"T. c black",
"R. c black",
"E. c black",
"W. c black",
"Q. c black",
"!. c black",
"~. c black",
"^. c black",
"/. c black",
"(. c black",
"). c black",
"_. c black",
"`. c black",
"'. c black",
"]. c black",
"[. c black",
"{. c black",
"}. c black",
"|. c black",
" X c black",
".X c black",
"XX c black",
"oX c black",
"OX c black",
"+X c black",
"@X c black",
"#X c black",
"$X c black",
"%X c black",
"&X c black",
"*X c black",
"=X c black",
"-X c black",
";X c black",
":X c black",
">X c black",
",X c black",
"<X c black",
"1X c black",
"2X c black",
"3X c black",
"4X c black",
"5X c black",
"6X c black",
"7X c black",
"8X c black",
"9X c black",
"0X c black",
"qX c black",
"wX c black",
"eX c black",
"rX c black",
"tX c black",
"yX c black",
"uX c black",
"iX c black",
"pX c black",
"aX c black",
"sX c black",
"dX c black",
"fX c black",
"gX c black",
"hX c black",
"jX c black",
"kX c black",
"lX c black",
"zX c black",
"xX c black",
"cX c black",
"vX c black",
"bX c black",
"nX c black",
"mX c black",
"MX c black",
"NX c black",
"BX c black",
"VX c black",
"CX c black",
"ZX c black",
"AX c black",
"SX c black",
"DX c black",
"FX c black",
"GX c black",
"HX c black",
"JX c black",
"KX c black",
"LX c black",
"PX c black",
"IX c black",
"UX c black",
/* pixels */
"~ / } ) J !  .W ~ _ W ( ] ] _ ` ( ' ^ R / ^ ( ~ ) ! / _ | ) ! W ! Q ) O.{ #.&.+.' ( ] } ! ( [ [ [ | ) ( [ [ X.) ( ( ( Q ) _ ` ` ",
"P W Q U E ! W U Y P E ^ _ ) ! ( / ( ! W R K T ! R E ~ / _ X.{ / ' ] ..o.[ ..} '  .@.=.-.;.+.X...+.` U I / ] O. .) ' ~ R Z ~ _ ] ",
". . o O @ + $ # $ O % ; - * * = & ; @ X + f R ' ! H   ; > : , = < < 3 4 , > > 1 4 4 2 4 6 > 1 , * = = - * y E ) | [ + - * & # o ",
"b x n b C F N C M B C A V V C V v m b l z W ~ ` T E 3 N V G G G P L L J J G J K J J E Q G C H Z A N A Z J @.' [ *.| 5 n A N V N ",
"E E Q U W Q T W ^ E Q T Q T I T I L S P J O.' ` / ` 8 G U _ ] } `  .+.} ` ` ] ' ` ' ) ~ ! ) _ ^ ! P K F K +.W / ( #.0 I / E E W ",
"&.-.:.=.}  .} @.o.o.O.1.$.o.O.%.$.#.H A I ;. .) [ o.8 A ! #.<.6.6.7.6.1.6.7.6.4.4.,.;.>.;.&.:.3.3.*.Z A W +.(  .E ` 5 V ! $.*.O.",
"P E ! ) Q T P R G S ]  .` Y ~ R Y I < m T <.@.| { @.5 F ( ;.} +.,.-.;.&.$.+.+.@.%.#.| { } ` / [ ) ' 0 G Q %.(  .' &.q I ] 1._ W ",
"W ^ ! Y U P Y T J ^ T ) ' ( ! { ` / 2 J ] 6._ ! [ O.9 S } 4.*.&.,.&.;.-.;.;.} X...%.=.o.` ] ] ) W ~ 3 D P *. .o.#.+.8 F / ,.! E ",
"` E E W W T / ^ I ) ' Q ` ) +.@.` ] 5 I ( :.! L [ @.8 Z Q :...*.1.-.#.+.#.&...( W ) #.:.| _ Q / ( [ 4 Y O.6.;.>.%.@.4 A ' 5.| X.",
"O. .| ` ' { { [ o.X.' ] | o.+...o.O.9 K ~ &.) L ~ [ 5 D T #._ #.<.>.%.[ +.;.&.' Q / ! @.[ ` ' ] ' / , L | 7.>.7.&.o.r Y O.<.*.=.",
"` ` & 4 8 8 6 8 0 w 9 w r R o.O.O.o.9 J ) <.} Q Q ( 6 Z ! o.O.{ #.=.* 6 < 0 : % 3 3 ; = 7 H O.{ ' ` 7 C U 4.5.<.%. .7 D  .4.|  .",
"` ( < n A C A F H G G H K X._ ` [ +.r I { 7.| _ E W 4 S { 1._ #.#.=.1 x m G S l c l v C Y ,.X.$.#.#.8 H X.q.:.%.[ [ 8 P o.6.[ ` ",
"Q ^ , Z G L T Y ~ T U J R ( ^ ] ..$.9 P  .9. .` _ ' 5 V ] 5...X. .` w G F Q { X.[ / L v I %.^ ( ..@.9 Y @.8.X.X.{ #.r P _ >.{ ) ",
"E R ; M L +.&.-.&.:.L K _ -.+.| X.#.0 D ' 4.X.[ H U > A / ;.X. .^ ' 8 C ^ &.2.,.4.3.] Q ' *.' -.} ^ < L ( 3.1.;.O.o.q G _ 6.' / ",
"/ _ 5 D Q _ ! } { o.y F } q.%.$.X.$.3 Y [ 4.O.o.^ Y = K ( :.' _ ) { 9 J  .:.O.#.&.O.s V Q 6.,.>.&.#.8 P  .<.1.<.-.&.0 H { 6.o.` ",
"{ ` 2 S / >.` X.X.X.0 P X.q.#.@.$.o.6 U o.3...&.o.o.9 G [ ,. .` ( { q F ' 1.$.$.:.O.t U Q ,...$.:.#.0 W } 1.=.,.=.-.4 C [ 3.] ^ ",
"o.[ 1 F ' 1.X...} | 9 U $.5.+.+.} ..5 L o.q.*.$.@...4 A R %.) ) ( / 7 G [ 1.*.-.:.,.9 Y o.6.*.:.2.2.q D / *.o.=.*.%.0 D ` ,.| / ",
"*.X.1 S ( <...X.X. .7 F [ ,.%.&.@.$.7 J } 4.$.#. .X.7 C J X.~ [ @. .3 H ..<.<.$.&.:.r S ' 7.2.7.:.o.; h ( 2.^ } X. .7 G ` 1. .[ ",
"{ ) ; B E 2. ...{ +.0 H I E d 0 5 t d I [ 6.#.X.%.| , A L ' J U X.} 8 W @.4.#.o.%.-.y m U G u 6 3 9 p B ] 8.+.Y _ Q 4 P [ 6.../ ",
"T Q 2 G W *.] _ U [ w D Y L Y U L P J E Q 7.O.X.] [ > n M W T ! ~ ;.y ^ $.1.` $.*.;.r V A c b z V I U / %.0.%.` ] .., x K +.W _ ",
"X.+.9 A ^ ;._ X...} 7 H R ` O.o.] ^ W Q / <.:.-.` ] & x H o.Q R ) #.t R ..4.X.%.%.*.s S Y F P / o.%.#.+.+.5.O.{ / #.7 D ) 1.} ) ",
"|  .w J ' 1.O.#.o.| J *.@.,.q.0.8.=.%.-.>.3.o.<.X.;.9 H { [ I _ #.[ < A P #...+.o.} Q #.+.#.2.9.9.6.7.<.>.6.` .... .8 I { 5.O.O.",
"=.%.t R ..4.O.*.%.@.;.-.` O.;.O.@.} T W _ o.X.1.O.X.r ~ $.&.} @.:.=.6 Z / #.} T T Q ^ O.&.-.=.@.#.%.$._ / X.X.@.X.O.9 J ' -.` ' ",
"$.X.9 G ] 6.X.O.#.#.O.$.o.{ } ~ ' $.o._  .%.O.{ o.$.0 R #.8.#.+.O.@.9 P | 4.[ ^ _ [ $.;.=.+.=.*.%.&.%.' X.@.@.+.o.O.3 G ' >.O.O.",
"R T 5 S ^ >.$...| @.#.&.O._ ) ` { ' &.%.@.O.] ) o.%.w E ..8.@.O.+.$.q R  .4.+.{  ...o.%.*.| } o.#.&.o. .| O. .} ( ~ ; l D ] R T ",
"_ ^ < B Q $.[ { ` [ %.#.#. .} @.+.[ _ *.` [ o.;.=.' 7 J @.q.=.&.&.=.r Q  .2.:.%.&.@.X.{ _ / ` _ ! ` _ _ / ^ ^ / Q ! : C Y #.! ! ",
"' _ 1 V U T i : 3 3 > 5 w 0 0 8 6 - 7 u r y y i t t h R [ 4.>.*.%.-.r W ) / a 9 0 6 3 5 9 7 < < 1 5 7 1 3 4 5 2 8 4 r H _ 4.} | ",
"R J < m G A Z D K D k A B F V A A Z m Z U U ! U A J J Y | 8.#._ | ..q I ! U G Y J R J L A v l V m C S b b b m c m b l F ~ =.^ ^ ",
"W W ; V R J P R R U ` '  .[ ` ~ ' ] [ { } ^ ^ ` ] _ _ ] | 6.O.( E [ 8 W | ) ) O.[ ] ( ! ! K P P T L P U Y ~ Q E I I P Y E ;.! W ",
") Q v *.#.*.;.>.>.1.4.1.<.*.$.%.*.>.&.=.&.%.@.*.=.:.1.6.5.8.+.] [ [ P <.5.1.;.4.4.1.,.>.<.=.=.1.,.=.&.;.#.O.o. .}  .=.=.%.;.( ~ ",
".._ W ` } X.#.+.&.#.+.o. ./ ` ] ( | ..O. . .[  .{ | { X.O. .+.o. .| ..#.X.) o.X.| ' [ { | | | } } _ W W Q E ! E Q ~ ( ] ) W ( ) ",
"{ / / P W $.O.....O.X.X. .{ [ ' ) } ( / { +.X.} [ [ ' ] X.+.+.+.%.@.o.o.....#.o. .[ { | X.O.X.O. .( W I ! ( ) _ Y /  . .) ` ' ) ",
"| ) ' ( W [ ^ ~ ! { {  .{ ] / _ ] ' { | #.O. .] [ ' |  .[ ] #.@.*.@.O.} | | ..O.] { ] ..'  .O.| { ` ( ( ^ ` ..| ] _ { } [ { ` ` ",
"X.X.|  ._ ! [ ! T / } ( L Z R ` ` ` ] #.O.$.O. ...@.#.X.| { @.&.O.{ ' [ o.$. .}  ...#.#.@.O.@.X.X.|  .{ } ..X.]  . . .O.}  . .o.",
"7 9 9 7 7 2 8 8 > % 9 3 7 B R _ ( X.; r 9 w q 9 8 9 r q 9 w t 8 7 4 5 4 q e r 9 0 r 9 w 0 E #.#.O.#.: q q 0 0 8 0 8 w r e q r 0 ",
"K K S m A H A U H K J m H o._ | O.%.9 I P I T F S L P K L P L A F K J H P Y R U P I K U ^ 7.#.%.;.;.e H P I L D D H I Q ! ! U J ",
"] ` ~ ) ~ / ` ) T E Q H F 2.o.O. .o.7 P ~ | | ` ) { ] ( } @.O.} ' [ o.+.o...| ..` ` _ _ o.9.$.=.&.#.w Y (  .....] O.@.O.[ o.+.o.",
"7.5.7.8.7.9.8.5.>.[ D L ) 7...O.o.X.0 G ) :.3.<.3.q.q.6.7.8.5.6.4.1.3.8.7.4.6.8.4.1.E ~ +.;.X.X.] o.e T ] ;.3.4.1.5.0.7.<.4.6.6.",
"$.O.|  ...o.o.%.$.] 7 C [ 7.' ' ' ' 5 K ' 5.@.#.=.;.&.1.<.1.*.$.#.%.o.+.%.$.=.;.:.:.t P  .4.$.@.+.&.w R +.9.1.;.#.} o.o.o.+.O.o.",
"%.&.&.$.O.o.O.#.#.$.0 K ..2.]  .}  .9 W +.8.<.1.4.2.1.3.3.3.1.,.%.*.&.*.$.%.#.*.&.$.e J } O.^ ~ ) _ , C ` 7.:.;.@.#.&.-.*. .O.#.",
"+.$.@.+.=.*.+.o.%.=.9 Y ) <.$.$.=.,.u ~ X.8.2.-.1.3.2.,.1.;.>.5.2.>.*.:.>.,.%.$.=.-.6 S [ #._ E Q I , l K +.R R Y o.-.o...%.o.{ ",
":.1.:.=.,.>.*.$.&.;.q Y X.6.@.+.#.@.q Q  .8.&.$.,.1.:.,.2.>.<.1.1.1.;.o.} [ ' { ` ^ 1 v Y @.' [ ( ( : v R X.! E E P [ _ *.;.=.*.",
"r r r r t / >.>.=.:.e ~ $.8.=.>.;.-.9 U  .4.*.&.-.*., u i e w 9 0 6 : $ * j K H Y H % d Y 2.~ / R E 2 n ~ %./ / Y / @ < r q e w ",
"T Y P L / 7.*.-.$.&.0 ! +.7.;.1.>.<.r T ..0.+.o. .[ 3 D L Y J J K F n x U &.Q U T ~ 1 m ^ =.'  .W Y < V ! &.^ ^ ' ] 4 m M V G J ",
" .{ / ~ ' 7.*.+.=.%.7 E X.6.-.-.=.>.t P { 2.[ ..$.%.e T ' } { } [ ' R E ( *.^ ^ } [ 3 S Q >.( E ! ` > b L #.W T U Y < n H E ( U ",
"4.2.I P ( 5.` {  .+.8 Y | 3.&.=.=.,.t W X.5.) +. . .8 I } 2.8.5.1.>.W R / =.) ( _ ` 4 Z T *.Q ^ ` ' = C I *.( ~ ~ ^ 3 A ) ;.<.&.",
"+.{ 7 n ` 4.| | +.X.8 K ) ;.) [ | O.0 D ) -.[ %.+.] 6 G ^ 5.X.X.o.} e C ~ =.^ ^ ! Q : M H $.! ` ..| 3 M T 2.} ' } | 5 D Q &.] } ",
"@.| 3 A ~ 4.O.X.O.O.5 Z Y %._ ~ ' _ 2 Z K -.#.O.@.| 2 S E ..] ..| ' 2 D W =.{ ~ / ^ > m R ;.` {  .' 3 f ! 3.%. ...O.6 D / :. . .",
"&.=.w T X.8.+.+.X.#.w K ~ 1.` ^ ' _ 3 Z / >. .` ^ R $ V Y X.E W _ ` < V I *.~ T ( ! - V W ,.*.*.O.` : n X.9.%.#.&.O.e U [ 6.*.@.",
"_ } 5 A ' 2.|  .+.X.6 H ' :...] ` } 5 B ~ -.{ ` ~ ! % F ^ ;._ E ~ R : m U >.[ { { o.4 F [ ,.;.<.*.*.9 I ` 3._ U ^ R 3 k D { ! ~ ",
"X.o.8 K ] 3.@.o.&.%.9 F R $.^ _ ! E 2 b G G 9 7 3 ; e F ! 5._ P U K & N ( 4.+.+.$.;.e R E } +.+.@.$.t ( ) Y q , 1 3 r g A =. .+.",
"#.o.9 I ) 6.@.$.&. .1 x Y *.) _ ^ ( 6 C L J C S J H ~ W / 4.+.' ^ ~ ; J [ 7.,.%.&.,.t Y Q =.J '  ._ 5 Z A C z z N D S P ~ 3.X.O.",
"_ Y 1 H ] 5.' ~ U ` 5 V ] 5.o...O.o.r ^ [ O...{ ) '  .X.O.5.@. .{ } ; F ` ;.O.^ [ ` 2 S ) =.| U | O.w W ! Y L F I K Q ( { <._ ` ",
"~ / < M L *./ ! ` X.q G ' 7. .O.+.@.Q 0.q.q.q.q.q.0.1.$.%.,.' | | #.2 I o.<.O./ X...7 L ~ -...( [ { I ,.<.;.-.%.| ..*.4.4.8.} ] ",
"] ..9 L ' 7. .( O.<.w P ' 4.%.-.<.>.2.:.;.+.O...] ^ ' ( ( ! E T E ( e L } >.R U ' X.w Y ` 2.X. .{  .[ +.@.O...( ! J W ..#.+. .' ",
"/ { 8 P ..5.{ ' ;.:.i ) #.q.,.<.,.;.*.{ } { ..$.$.&.#.O.W / _ ..O.} 8 S E ..E J R ( 7 I ] 2.#.X.| } +.) ' | +..._ _ W E ( U ` ) ",
"{ ..q P ] 6.;.%.&. .1 G W &.:.;.&.Q / ` _ +.O.#.%.+.*... .^ ~ ^ ) [ 5 G _ ,. .{  ./ 8 P ..3.$.X.o...+.' ` | +.} O.| E W `  .]  .",
"~ Y - m D  . . ./ } 9 G ] ,.o.O.' ^ W _ @.} +.o.@.%.&.@.+.X.{ [ / ` < S ~ ;...' } [ 2 F ' *.@.$.O.{ o.] } X.{ Y _ U T [ +. .$.X.",
", - 2 k D =.' ! U ..0 H Q R 6 2 4 6 1 6 9 9 e q 0 q 0 9 9 8 9 7 5 8 r M G o.Q ^ W / , l L U 8 1 2 > q 6 4 2 5 6 5 1 ; 6 q t e 4 ",
"b N Z B Z  .[ +.} / < C P I J G V F A Z T I K K H C J P J G G G J L H K H [ R ) ^ T - l N A Z S A N A A K P U K P H J F H S F z ",
"Z I P K Y O./ o.} ` 5 K ( / ! ` ^ W ` ^ } [ } [ ` ^ _ _ / Z Y ' ' Q ! Q ( ;.[  .] Y , V I ! ^ ~ ! ) [ ) ' ` ` W E W E E U E W P ",
" .o.O.&.X.O.' O.O. .K ;.1.:.;.>.>.=.,.#.-.>.1.5.:.=.+.:.-.' [ $.-.;.>.>.3.7.O.$.-.@.P :.3.,.$.-.;.;.&.*.,.;.&.%.-.%.X.#.X.@.+.#.",
"Y D Q ^ T U Q ' o.} X.[ ` } #.o.%.+.@.) ) ] ( ) ( ~ R ( ] { } }  .X.[ #.O.+.| o.%.#./ P ^ ~ ^ `  .| ) ] ( ( ) W _ ^ W U [ _ ~ Y ",
"/ ^ ] ` ^ Q O.@.) ] ] ' { +.#.#...X.X.| { ~ _ ` ~ Y `  .' | +.o. . ...O.] } | [ o.$. .' ( } ] [ | _ ' ' _ ] ) ^ ^ ! ! / / ) ` { "
};
