/* XPM */
static char *cracked_stone_bricks[] = {
/* columns rows colors chars-per-pixel */
"64 64 124 2 ",
"   c #0E0700",
".  c #130A03",
"X  c #1B140B",
"o  c #1F180E",
"O  c #241B14",
"+  c #291E16",
"@  c #271E18",
"#  c #291F19",
"$  c #2C231B",
"%  c #30271E",
"&  c #31291E",
"*  c #2F2721",
"=  c #2F2922",
"-  c #302720",
";  c #342B24",
":  c #382E26",
">  c #362E28",
",  c #382F28",
"<  c #393027",
"1  c #37312A",
"2  c #3C332C",
"3  c #3F382F",
"4  c #3D3630",
"5  c #3F3832",
"6  c #40362E",
"7  c #42382F",
"8  c #413730",
"9  c #443B33",
"0  c #483E34",
"q  c #463F38",
"w  c #493F3A",
"e  c #474137",
"r  c #4A4137",
"t  c #4C433B",
"y  c #51463D",
"u  c #53493F",
"i  c #4F4841",
"p  c #544B44",
"a  c #584E45",
"s  c #574F48",
"d  c #565046",
"f  c #5B5147",
"g  c #57504A",
"h  c #5D534B",
"j  c #5F594F",
"k  c #5F5951",
"l  c #61564C",
"z  c #64594E",
"x  c #685C4F",
"c  c #635751",
"v  c #655B52",
"b  c #6A5E54",
"n  c #675E58",
"m  c #695F58",
"M  c #6C6156",
"N  c #6D635A",
"B  c #6F695C",
"V  c #706356",
"C  c #72665C",
"Z  c #74695E",
"A  c #786A5E",
"S  c #716760",
"D  c #766B61",
"F  c #7B6D63",
"G  c #7B6F69",
"H  c #777065",
"J  c #7D7165",
"K  c #7E7369",
"L  c #817366",
"P  c #82756A",
"I  c #88776D",
"U  c #85796C",
"Y  c #897B6E",
"T  c #867770",
"R  c #887770",
"E  c #867B71",
"W  c #8B7E72",
"Q  c #877D79",
"!  c #8A7F78",
"~  c #878073",
"^  c #8D8174",
"/  c #8E8479",
"(  c #928375",
")  c #938976",
"_  c #93867A",
"`  c #99877A",
"'  c #95897C",
"]  c #998C7E",
"[  c #9C907F",
"{  c #938780",
"}  c #968C81",
"|  c #9B8E82",
" . c #968E89",
".. c #9D9184",
"X. c #9E948A",
"o. c #A08F83",
"O. c #A19386",
"+. c #A2968A",
"@. c #A5998C",
"#. c #A99B8D",
"$. c #A29690",
"%. c #A59B91",
"&. c #AA9D93",
"*. c #A69F98",
"=. c #A6A091",
"-. c #ADA295",
";. c #ADA39A",
":. c #B1A497",
">. c #B1A69B",
",. c #B4A99D",
"<. c #B9AD9F",
"1. c #B2A6A0",
"2. c #B5ACA2",
"3. c #B8AEA3",
"4. c #BBB1A6",
"5. c #BCB3AA",
"6. c #BFB8AE",
"7. c #C1B8AE",
"8. c #C4BCB3",
"9. c #C7BFB8",
"0. c #C8BFB8",
"q. c #CAC1BA",
"w. c #CEC7C1",
"e. c #D0C7C1",
/* pixels */
"v l e 4 w N D Z t w t 8 1 q 6 q 3 ; ; 6 9 2 1 6 2 2 5 1 3 2 ; $ $ $ % $ ; 3 1 ; > e 9 1 1 1 < J 9 7 < $ 1 - , , ; 1 ; , 2 7 9 h ",
"7...| @.%.#.-.-.,.O.#.9.2.w.&.+.-.#...O.4.4.O.| #.+.+.-.@.+.&.p ..^ L N ( ,.+...=.%.H E ..-.>.4.;.>.q.4.6.+.} +.#.#.+.] | | V : ",
"1.@.} 1.2.-.[ ..+.#.] 6.8.8.%...-.+.O.~ ) ..] ^ ' O.J M ' +.>.v 5.+.O.( ( =.>.-.-.X.P K ..U ..;.>.] 8.q.6.%...*.;.| ] O...| Y m ",
"_ ..&.;.;...W ..] -.| ] #.%.' #.#.=.O.[ ) ( ..-.-.-.' Y J ( A b -.,.3.3.6.-./ h N ..;.1.#.' ' [ ;.P K +.%.| F ^ } &.] +.L E G p ",
"m F 2.5.5.3.5.-.1.| ,.&.| ] +.-.#...@.+.@.@.) +.' ] ~ U ~ ;.K U | &.o.+.%.&.%.W | %.+.+.2.;.;.| ' ( F S @.-./ E I P U } F N N p ",
"| I +.,.;.;.;._ L Y W +.&.@._ ` ^ ..#.[ I P U J } P J D A =.} k b L S N F _ _ &.2.+.} | | } | $._ ..| | ! X.@.' ~ Z N / J b v ; ",
"X.%.;.+.X.%.1.@.F %.| +.2.;.+.&.Y U P ( Y / U / ' D U U J J ( h D Y _ ! &.%.U | ,.&./ ^ } ^ ' +.$.W J _ E E ..J ^ M H U H D l 3 ",
"-.%.+.;.,.2./ k l G P / ..@.%.$.Z ^ ( ] ^ ^ J P / U U D J U P k F c F ..+.X.c U U | +.} +.| W _ ../ Z ~ { ^ c b W D / K S c n 9 ",
"4.%...^ A ` %.l +.2.+...;.,.W J v Y ^ X.P J J P ~ K } K M P ~ z L G I | ' D p T E E ( _ ) _ ..;.2.X.E ' P Z h N P F ~ P h h B e ",
"2.>.%.| | I ! p ,...' ..+.,.| ' ( b Y U F C Z Y ~ ' } _ K I J n | +.{ _ F J s S P G T ' +...X.| | { +.} M u q R D J D z z N z p ",
"| | ) O._ | t i @.' R W ( ` Y #...v z U A Z ^ Y ~ _ P D ) C C c ' ^ I ' ..n N X.' Y F K U ^ ' A _ c c N v t q C l c p c M M z 8 ",
"W +.] ' ^ ^ 4 K K D P Y ` ] O.%...Z M Y ~ ' ( U ~ U A A Z N b g K P U ^ #.M U #.| K T ' ' ' U +._ ~ J n N e 1 I E ' N M B J c ; ",
",.+.-.+.Y ^ ; N J U A J ' ] ' ` | h 9 ^ C Y ..^ ^ ) J Y v d v t U U [ ..J p A ( A 9 1 N Z } ^ ) W ~  .{ ^ e , / ( ..M V D P f 2 ",
"%.+.F Y @.( * O J L J Z ^ ) +.^ W ..3 W P Y Y Y C L Y U P d v e J J +.( ) y h / J M f p d N J K K K ' ( W G ; 1 J ^ A W D _ h > ",
"-.#.X.D J h $ $ L F M A Z z J _ ' | 2 2 7 ' ~ 3 9 9 f U J 9 8 : d C ^ P U u t U U N J C J P H J H / $.' | q o 8 ~ W / ' ^ J d 7 ",
"] / J ) ^ r $ $ ; 9 F U J J L K K ) ) $ o O & & O $ & 2 2 3 e 3 u l l V Z 1 t J J Z B x B C C V t N ~ D 5 @ o K N b j b v f 7 $ ",
"9 2 < 7 e 9 9 & 2 : h t 7 2 9 8 0 2 3 2 O .   . X $ $ 3 1 & ; % y y r t q ; - q 0 7 2 9 9 8 q ; 4 t t q i 8 y h y 8 ; $ ; ; 1 2 ",
"] ^ O.=.-.[ ' _ ! ] +.` ,.P 0 $ 9 9 F P 2 o O $ $ 3 e t B ~ U U ^ O.#.^ ` -.# | +.| ( _ ..R 8 ; 5 F ' X.&.&.%.&.2.5.,.R ( ..+.@.",
"X.~ ~ ~ ] ( U .._ _ F U ( ) I 1 i | -.*.9 5 % 6 X.:...P ) ] ) ' ] ` ..O.+...O O | ` C P @...L > V ! _ | +.&.] #.2.%.>.2._ _ +.,.",
"~ ~ H J F J U Y ( F L ( ) O.F ; P X.%.^ / D % ^ =.X.=.X.^ U / ^ U U ^ '  .) c O S L Y F ! ^ ;.N S G ' X.O._ #.&.&.` ( ^ E ! _ Y ",
"~ J U J P U F L ^ K I F H ' ^ q ,.....U | +.u +.-...[ #.@.] O.] ) ) ' ' ~ ( D O 0 F L I W / $.e N I ^ U ` ..#.[ @.+.+...( Y W U ",
"Z J H ~ A U } | X.' E D N D Y 6 ' ' ..' _ ' u d ..%.~ ] -._ ' ..#.+.} ~ P ' F O q W F W P J $.t %.' P P ( ] +.) / ) ) ( _ ( ( ( ",
"~ J U ..} _ ` ' ( I L W J c K ; ....) ) ^ ' K h b ' G I _ I ( O.@./ K _ W { l + 0 P I ~ I T %.r >.O..._ ) Y O.+.] ( ..| ) P U ` ",
") ~ ~ X..._ U W / _ W K A h Z * J P L F K [ Y M C E L $.| ' W F _ _ H E Y D a # W U P S A ' ..0 ] ....X.%.#.` ^ ' X.=.X.} @.' ] ",
") [ B ) ^ U U ) _ K ~ ^ C l K q ..U H ~ [ ) X.@.N N +.P ` #.( ` ..X.( ] K J ; $ A Z n n N ^ #.< Y / W P O.O.| Y I +.+...%.#.) ) ",
"K ~ P K H K ^ ] U ^ Y Y V V F $ X.@.[ ~ ' | ~ U ' g c W W :.:.:.] ` ] L D D ; $ S R I J n F J 0 ^ ^ | ..^ ^ ' O.%...Y ^ ' ^ ) B ",
"J A U J K U ~ ) ^ ( W ] F v l = [ ) ..[ ' F / E W n h ~ | ( ] +.Y ( Y Z P D ; @ D W L ( Y ^ L t >.O.] ;.&.F M ] +.] ~ ^ U O.@./ ",
"' Y ^ D / ' / ..( ] ^ A N C n $ ^ ^ X.' ..| { | I E S ^ ] O.[ ' Y A F F H N # $ ) L A U Y Y B 7 ..^ I +.@...( ( ( C A ^ ( ] ) @.",
"U J M M U U P [ / [ U Z M F a + ^ C P P D F Y _ ..~ E I ^ ^ J J F L J J D N # O L A A Y U P F 9 ^ Y ] ` _ } ` L M L D L U ( I ` ",
"D ~ H M M H K U A J D D M Z p ; ] C S C P K F ( / P K M I L D N _ ^ ~ D p c $ + L L A L ~ J A q ] P ~ ' _ ' ' J A U V F W P U F ",
"Z K ) F j M N n v h h j p 5 3 $ z _ E D E / ! F K E E R S N N A ~ L D H N * O F U L Z B A H N q L Y L L ' ) U [ ) M x V A J L J ",
"D P ~ M h k v p p g p g p 8 ; # e P J J G P o.;.,.-. .E ^ ' Q P F ! I G - ; O h W ( U P A M 8 , @ ; L Y J M A J P A C C Z L U P ",
"7 u h a w 9 4 8 8 8 s c c 7 6 < & 0 u x V C A l f d h u p d y $ $ ; $ $ O O + O f y 9 7 0 w 8 t p % , t h a a y p b L x y 7 $ $ ",
"F &.2.&.{ W _ _ } ! O.-.] 3.[ W ` O.#.7.7.4.q.7.:.3.,.] ^ M $ $ t n w.U E N + J V A ( Y N N b V &.| &.4.-.[ ) ] :.>.[ ) O.L p % ",
"W o.| ` ] ` ] o.` +.O.-.&.` O.L Y ` #.:.O.#.5.>.#.=.X.P $ $ $ u >.5.6.-.+.P 7 U #.( @.&.K F ( >.#.] _ ' ..( ^ ^ ] #.U Y ^ ] ^ < ",
"I W D R ] P U Y W _ +.7.-.( ( ] I I ) O.@.-.+.} ..[ ..< > X.+.C 2.4.+.+.#.+.#.0 #.@.` ( R K U ! ' W F Y Y U ( ^ ] Y L ( Y +.( 7 ",
"-.&.+.W ( ( Y x V L :.&._ _ ` ] Y Y L I } O.' F A V y 9 U #.#.F ,.+.| ....O.-.9 0 -.] ( ) W ( W ( L W W ^ ( ( ' ( F J I U ] ) e ",
":.&.#.o.( W ( I } I I D @.W _ V V [ [ [ / ..' ~ Y f u P Y ` #.V 3.` ) Y ' ] O.) 0 ( ] ( I ] ....A Z J J F Y ..] ..I J ^ Y ^ ^ 2 ",
":.W ( ] +.| | o._ Y I L J C b A V z ( #._ ) ~ U v f B Z C U ^ u ..W Y R _ ` O.] 9 U ` _ ) Y ..@.' I J @...-.%.-.>.[ P W J D ) e ",
"2.2.3.#.+.+.` | #.2.-.,.+.` Y ( x l J C M W Z l M P ~ D P [ ( t ` ..P _ #.-.O.O.u f +.O._ ) ( ..} / C ) ..| U P ^ K H J J B _ e ",
",.#.&.+.O.O.o...%.+.+.:.#.@.[ ] ) h y r 3 9 ; R W P W J A ( O.y ' Y ~ ' ) ' ( ) ( B L +.] ' ' ....%.] V Z I G P ^ M V L l c I 7 ",
"} &.,.| P _ ` | #.| +.+.:.#.:.#.O.W ' A 3 3 $ * $ ; t 6 F U _ q ..Y ] +.U ^ ../ ] A Y ) ..) +.#.| O.O.U V K l m L J L L b c A % ",
"#.&.0.3.+.@.] ..| ] W +.` o.<.-...P J U P l 9 1 ; $ $ O $ $ 1 ; _ O.| _ ......[ +.Y L ( ( ] | O...` W I G F h F A L Y Y I L m , ",
":.3.3.3.-.>...( ....P ......] +.#...U M C F ^ ( J U ; & % O O + o.] W ' -.O.{ O.] ( A Y Y O...^ _ ^ +.W I ! h l ) U I A V b c : ",
",.:.7.4.*.+.+.( F / ' #.` [ Y [ ( L ` M M S ~ _ C Y U A F 0 % + Y ` I -.4.%.%.| P Z F P K ' ~ | I P D C V ( +.n l W L l l V b ; ",
",.<.>.#.^ P ( ^ U P ' ] ^ ^ Y C A L Y d e a Y F z L _ L _ D 6 + O.[ L #.-.] -.} M C J F D T A M J E D I ! K L R f W F V V V f % ",
"| +.] @.( ../ P L J Y ^ ) F A J L ^ ^ P I p F K ` ..| / ( D i 9 O.^ M L Y ( K | ] W ../ J D P g M / W P K L F g 0 t l V x y 0 % ",
"F m F W ] _ ) U W ( U ( O.^ Z Y J M S E W F t A W } _ E G F l : b h L ( L A F Y ( ^ / W U I J A N I ) P P E 8 8 0 c l a a , % + ",
"w 8 > 0 a a v l a v A s 0 8 $ % 2 . 2 8 3 = 3 7 7 2 2 7 6 0 0 4 y 0 7 q 0 6 8 3 e 1 > 3 6 2 1 < t p p N c 4 4 8 8 c e q e w > 0 ",
"%.&.} I ! | ] #.<.+.O.+.I b 6 $ . . 7 c c S E >.,.-.0.4.4.e.0.&.+.:.<.4.#.%.9 3 7 1 1 %.| / e e 3 , 9 ..` W _ _ { | W %.5.>.O.+.",
"o.P P W R L F ;.>.&._ | +.o.U # 7 3 8 -.' %.-...O.] 4.8.&.5.4.&.O.+.:.O.! &.} 1 9 6 +.2.` ] ..6 7 7 +.#.| { &.-.+.$.$.@.R _ ( ! ",
"{ ! C A P G P ' ` I ( ! L U L 9 :.9 8 X...] ..U ] -.-.4.&._ _ O.+.] | +.o.) ' ) 3 | ' ' +.] -.I 9 r d #.+._ R U I K J K C F _ _ ",
"_ D A L W W R P Y A ! ^ P _ ^ 4 O.| > I @.@.+.} [ <.:.<.7.3.:.X.#...F _ Y / +.%.3 2 ] +...X.-.p 0.5.h ] ] ' | ] $.X.' ( P F W o.",
"P L I Y L Y _ ( ! I ( ! Y _ W ; D C t J W ` +.@.O.&.3.-._ $.+.{ #.+.W S F G W { ' 1 3 ^ E J %.p #.O.L | R I X._ | +.+.( W ' _ ! ",
"R L S ! ` ( ' W ( W W X.} ! { 2 ] O.M v ) ( -.O.A L ) ,.+.| | P ` } R R L I L P ] | 4 _ / _ +.t -.F G F { E } >.*._ ` W ! F F | ",
"_ P P ! ' ^ L I Y U _ ` L C I 2 ] Y U b I L Y X.@.3.-.,.&.&.&.O.` R G P C Z C Y W Y t J I ' @.e &.%.Z h ..@.W ] W X.) | L P L ! ",
"b Z / ..W ^ E X.W L ' ' C c C 1 Y ^ ( x C W ^ ..( -.5.,._ P *.%._ ` ' X.F n A P J e I G G ~ $.i 5.2.| g / ' ^ H P +.| ' m I K F ",
") J O.U E E W X._ Y ] ( A G ^ ; >._ P ` C ( P / [ Y / *.6.%.-.@...] ..{ W F C Y w t L D / _ _ p %.&.+...v X.$.U ! P F R X./ U J ",
"+...X.K P U / | _ ' _ Y M l h , O.^ ) M z W ] U Y ^ K ' ;.2.5.5.;._ U I U A Z n e P D Q / @. .t %...| +.b R ] #.&._ ! _ *.,._ %.",
"+.` @.^ J P X.} ^ ] ( C b M b % #.( U v J ] | +.} ..../ +...W =.$./ P D K C C P h / X. .X.*.E y #...+...C O...%.+.' Y ! ' W E _ ",
"^ J A P Y P ! W ) ..J N b A z ; %.| | ' K K ^ | X.#.@.~ W ' Q ..U } ' K H E _ X.n / '  .} T N g >.~ O.%.#.' .._ U U ~ { ^ P N J ",
"J A F P Q / ' }  ./ N M b M g ; +.W _ E K D M Q ;.*.} P } } I A P ' Q F E { / _ I P C J ~ Q / c ..I _ -.;.+...) ^ J F ~ W K D N ",
"A K J K A C A F ~ / F A v y 0 2 S O./ / / G F P ^ } ' { -. . ./ H U ~ W / _ R X...I J Z N Z C p { _ K / @.../ ' ' K F D F T N c ",
"D J F F D D Z D K I I F L ( e + t L F / K P / ....} / I U _ { P I H Y N ^ | | | @.' ~ I I N y 9 / W O.( | O.~ H U U Z J J W } F "
};
