/* XPM */
static char *dark_prismarine[] = {
/* columns rows colors chars-per-pixel */
"64 64 203 2 ",
"   c #0C0E18",
".  c #051313",
"X  c #091716",
"o  c #091A16",
"O  c #0D141B",
"+  c #0B1D1B",
"@  c #101E1F",
"#  c #0D221E",
"$  c #10271F",
"%  c #111C20",
"&  c #1C1A25",
"*  c #221C28",
"=  c #0E2521",
"-  c #0F2A23",
";  c #122523",
":  c #192426",
">  c #122B26",
",  c #192827",
"<  c #162728",
"1  c #1B2428",
"2  c #152D29",
"3  c #1B2B2C",
"4  c #15332B",
"5  c #1A322E",
"6  c #16392E",
"7  c #1B382F",
"8  c #1E2D30",
"9  c #173730",
"0  c #1C3531",
"q  c #173930",
"w  c #1C3B34",
"e  c #1F3E38",
"r  c #22262D",
"t  c #222B2E",
"y  c #22332F",
"u  c #212E31",
"i  c #282E33",
"p  c #233434",
"a  c #2A3336",
"s  c #223B36",
"d  c #2B3A36",
"f  c #2B3539",
"g  c #233D39",
"h  c #2A3C3B",
"j  c #373638",
"k  c #333C3E",
"l  c #1C4136",
"z  c #1E4439",
"x  c #1E483B",
"c  c #224137",
"v  c #23443C",
"b  c #2A433E",
"n  c #23493E",
"m  c #29483F",
"M  c #30433E",
"N  c #343D40",
"B  c #264640",
"V  c #2C4541",
"C  c #254C41",
"Z  c #2B4C43",
"A  c #334542",
"S  c #3A4445",
"D  c #324B45",
"F  c #394C46",
"G  c #374748",
"H  c #344E49",
"J  c #3B4D4B",
"K  c #265144",
"L  c #2C5246",
"P  c #2D5449",
"I  c #2D5A4B",
"U  c #315247",
"Y  c #33554A",
"T  c #3B534D",
"R  c #355A4D",
"E  c #395C4F",
"W  c #3C5651",
"Q  c #355E52",
"!  c #3B5D52",
"~  c #2E604E",
"^  c #39604F",
"/  c #356352",
"(  c #3C6454",
")  c #3E6A56",
"_  c #3F6559",
"`  c #3C6B59",
"'  c #3B7057",
"]  c #3C725A",
"[  c #3F785A",
"{  c #454445",
"}  c #424B4B",
"|  c #43544F",
" . c #435553",
".. c #4B5555",
"X. c #435C55",
"o. c #495B56",
"O. c #4C5658",
"+. c #455E59",
"@. c #4B5D5A",
"#. c #555B59",
"$. c #416456",
"%. c #416A57",
"&. c #44645A",
"*. c #4B645C",
"=. c #436C5B",
"-. c #4B6B5E",
";. c #51635E",
":. c #526C5F",
">. c #45735D",
",. c #49725E",
"<. c #457B5E",
"1. c #487D5F",
"2. c #446360",
"3. c #4D6661",
"4. c #466C60",
"5. c #4B6C62",
"6. c #526662",
"7. c #536B63",
"8. c #596864",
"9. c #596C69",
"0. c #457461",
"q. c #4B7364",
"w. c #467C61",
"e. c #4B7B64",
"r. c #4B7669",
"t. c #4E7C6A",
"y. c #527366",
"u. c #5F7467",
"i. c #517B65",
"p. c #55746A",
"a. c #5B766D",
"s. c #547C6B",
"d. c #5B7A6C",
"f. c #577B71",
"g. c #5E7B71",
"h. c #696F69",
"j. c #647367",
"k. c #637D72",
"l. c #45835F",
"z. c #458364",
"x. c #4B8366",
"c. c #498A66",
"v. c #448769",
"b. c #4E8369",
"n. c #4D8D6B",
"m. c #52846B",
"M. c #538B6C",
"N. c #58886B",
"B. c #4D966D",
"V. c #54966C",
"C. c #519A6C",
"Z. c #558571",
"A. c #5C8472",
"S. c #548C72",
"D. c #5C8C75",
"F. c #5D8E7A",
"G. c #559372",
"H. c #549C74",
"J. c #5A9E73",
"K. c #589976",
"L. c #5C9479",
"P. c #648675",
"I. c #638D7A",
"U. c #63957E",
"Y. c #6C967F",
"T. c #649D7D",
"R. c #4EA46E",
"E. c #53A86E",
"W. c #55A473",
"Q. c #5AA474",
"!. c #56AB77",
"~. c #57A479",
"^. c #5AA47D",
"/. c #5AAB7B",
"(. c #55B470",
"). c #57B47D",
"_. c #62AB7B",
"`. c #56C07A",
"'. c #5DC07B",
"]. c #61D47F",
"[. c #639681",
"{. c #659D83",
"}. c #749987",
"|. c #65AB87",
" X c #73A48F",
".X c #63B481",
"XX c #6DB486",
"oX c #79AB94",
"OX c #7FB492",
"+X c #5DC081",
"@X c #5CC08D",
"#X c #5FD484",
"$X c #5BC09F",
"%X c #62D485",
"&X c #68D487",
"*X c #65D48C",
"=X c #6AD48E",
"-X c #71D48F",
";X c #68D498",
":X c #7CD4A4",
">X c #68D4B4",
",X c #7FD4D4",
"<X c #87FFAB",
/* pixels */
"v C C K Z K n l q q n > J I.y.7.y.A.Y.I.p.G.T 2 / L L Y Q T ! Q C Q h 0 B b v v v c c c v s # m L Z Z L L Z D m Y c c Y Y Z Y v ",
"g x z v z z w q 4 4 w 2  .A.=.-.3.9.a.f.p.A.&.0 K Z C K P K L P C C w s E L U Y Y U L L Y Z 5 L m m m U U L m L I m C Y v n P v ",
"w C C n z z l q w q x w W r.&.*.*.p.p.7.9.J...8 I Y R Y Z Z Y P P / 9 v c.^ E E $.( ( E ( T p ) >.$.( %.=.( $.$.>.Y g C v C Z v ",
"l n z l C n z z l l K 0 O.n.*.4.q.A.d.s.A.D.$.g / R Y K P P P P Y _ B P z.=.=.>.%.>.%.%.) ( b %.x.,.>.%.%.%.&.%.<.T c L v v P C ",
"0 q l w z z w q w z n = { f.X.X.3.p.*.7.7.f.J 2 Z B n C Z C v v v C 4 Z g.-.,.e.W.w.y.i.K.5.7 $.x.<.=.0.c.<.>.>.n.J g C v z C Z ",
"3 > > 2 = X + # + = = # 2 8 , 0 , > w p p s u : q 0 3 5 = 0 V V h b H  .} D D f p n b b m b p n U D U m g D Y Z Z s 5 4 9 w 9 ; ",
"Z v b Z v ; v n C v v K C v B P s = R v Z v Z P Z Z Z L ; O.:XF.F.D._.k.i.r.e.T ; C x n v l n z l v n w # v v v w v v v s v B = ",
"! R Y E Z 5 n z K C z l z n z x v v W H P Y T R R Y H R f X.i.&.*.5.*.@.+.2.&.T 3 n z l l w l n v l x v l ! Y Y Y Y E Y Y Y Y v ",
"( E ^ ) ( Z v z z C C l v n z x v b M.w.&.%.=.,.=.=.>.x.M T i.3.7.3.@.+.@.&.( H 8 Z v z w z v n v z K w s x.$.! ( ( / ^ ( / =.m ",
") >.>.>.4.B z C v C C z n K z x b M c.,.%.=.%.=.=.%.%.1.Z ( ).r.7.t.5.4.5.0.0.H 0 K z z x n x n x C n w A H.>.>.w.<.1.q.,.=.x.D ",
"q.A.5.s.p.3 9 v w q z z w v w z 0 p e.=.&.$.=.q.! X.( >.g g  .J j S +.+. .T T A 2 z l w w w n q w 4 6 4 h D.=.=.&.q.A.7.i.i.g.k ",
"s 3 h g g u > > > ; > + > > > - > t p s g v s 3 b h b v v 0 ; ; % 2 < > 3 1 % 0 z 7 4 2 5 > + h V b b b D Y H Z D t 3 v v v v g ",
"v s ! C R ~ C P R ( r.; w C Z B C K b v v Z 5 + R n n n C K K K K ~ 2 2 K Z Z Z Z Z Z Z D Z %  .A.8.p.m.i.*.6.7.U.b 6 K n n n K ",
"z B R Z Y Z C Y K R 0.g v ! R R ! ! R Y Y Y Z w x l v z C z z n C K 0 h ( Y Y R W R R R R R 8 F &.o.+.&.&.&.+.o.7.T w n v n n v ",
"C g Y R Z P W R L R =.v Y >.( E ( ( %.( ( >.R 7 n n n n C z n v B K 0 G c.&.( ( &.( ( ( %.) p F W X.o.( $.&.&.+.5.G c K n n n n ",
"K Z ` E Y / / R K E b.c ! _.b.Z.N.n.w.e.m.(.o.p ~ n K K x n C n z I 9 V E.>.0.,.=.>.=.>.l.i.a | -.*.5.0.5.=.0.5.H.Y v I K K P K ",
"5 3 g 7 v Z v v w c Z 1 S *.$.o.-.*.X.X.E &.T 3 4 2 4 4 7 4 4 4 4 w 4 P P.y.5.-.s.q.=.=.+.X.s F T G M F T Y H J W f ; w w 7 w 4 ",
"0 2 4 7 p + 4 s w 0 5 u p w w v , i J C Y D Y D p d c b , o # # = - e v w s s w 5 v g p p 0 C s 7 2 1 % + 7 4 4 ; 1 3 > 4 2 # 3 ",
"P I P I ^ 5 C U Z L L Y L C Z U v A *Xr.A.y.r.D.f./.Z./.A 4 n x z v l l w q w x > m C C C Z D C Z L Q 0 s L m m C C L Z L v 0 ' ",
"K K n v n c Y Y Y Y R E R T E E D Z =.*.-.*.*.*.&.4.*.-.V 9 q w q l w l 6 4 q l s ) ^ E ! W ! E Y Y ( h b ( R R Y R E R E D v C ",
"K K C v n Z >.e.,.=.0.0.=.=.=.,.W Z *.&.*.&.*.+.*.*.o.0.N 4 l q q q z w l q q l h =.( R $.R E ! ( ^ %.L Z e.$.$.( $.=.( >.=.v C ",
"P I K K I n >.,.=.) =.) =.=.>.z.( P v.b.q.e.s.i.K.i.q.%XN 4 x l w q z w z x 6 q b e.%.e.M.e.<.>.>.<.G.P U Q.q.<.b.x.n.m.V.( B I ",
"7 e 0 4 5 u Y ( E R Y ! D Z Y Z p p T A F H A T G A G T 8 = 4 = 2 $ q 4 > > - ; 0 $.X.( E X.q.=.=.o.*.p h y.&.*.o.X.| } W V 8 9 ",
"5 < > 4 , 5 7 w w w p O 0 H B w w p 0 3 5 0 , X 3 u 0 w B e 3 0 0 w # 7 T A F J $.E T T T V ; v b p e f s w w p 0 = 3 b v g 0 0 ",
"n.h v I P R Z n C C Z . Y z.I P K n C K n K P g R P P H Y R R Y K ( 5 H ;Xf.Z.A.u.q.7.7.A.*.> m Z U U L D Z Z C Y w H B.E Q K / ",
"R V Y ! E ( E E E ( ! 0 H I K v C l l z x z v b ! R T R R E R T R ( c H 7.$.*.3.:.;.*.*.7.o.5 Y $.R R E E E R R ( D Z E C L Y L ",
"Z V ( E / ( ! ! ( E =.4 C Q C C C q x z z C v c n.e.&.=.=.=.=.=.=.b.b H p.*.&.*.;.:.*.*.p.| * Y =.^ ( ^ ( E ^ E ) T b L Z Q ! Z ",
"R R >.>.e.>.>.m.b.M.H.w P ' I P K x K C n K K C V.e.>.=.>.x.>.,.w.R.A  .XXg.A.D.D.U.XXP.k.{ * $.<.%.) =.=.>.>.=.z.&.K R / / / / ",
"w s ;.:.F &.7.T | O.X.0 > , - > - # = = - 4 ; , T F T D T F Y T D T p r h h k j f a a s d 1 & $.=.=.( $.=.E X.T W V > 2 w 2 - e ",
"w 7 g b 0 5 v w 4 s q w g 4 4 4 + ; A d h s h V B D A &.3 # v g 0 0 g p 5 w w < o w 3 7 7 p b m m F L 3 a X.H J T P V b h h v o ",
"P K C C Q s w I n C l q x K x C q A ).U.A.p.7.6.9.y.4. XT w R C Z D L Y R Y R Z 7 Q I Y D Y Y L Z n Y 2 p *Xe.S.=X[.L./.^.W.@X2 ",
"W E E E ( V 4 n C Z z z L v w z 4 f u.*.3.@. ...o.*.;.X.h B &.R R Q ! ( R W $.Y c $.( E ! ! X.! R R =.g b &.o.y.7.*.*.2.4.5.5.8 ",
"%.$.%.$.=.Z w z C C L I Q C 4 w 4 h }.h.*.-.:.o.+.@.o.*.h Y =.%.=.( &.=.=.) >.! e ) ( E ( E E ^ E R >.h k S.4.4._ &.4.4.=.*.5.5 ",
"Q.W.).!.%XK z / C z _ 0.' x > z C g }.oX XOX<XOXoX{.Z.).y o.D.Q.&X).#X'.&X=X=Xy.A G.S.m.N.m.m.i.V.m.>Xb h $X!.n.r.S.{.Z.t.n.Z.g ",
"F h V D b 7 ; ; # + > 2 2 - - > = = h h j } S F M h d f # s W Z m h d D Z b c d a H T W T D o.&.D T  .w = a p 7 w s s p h s v 2 ",
"0 w - 2 2 7 0 4 0 4 4 . 3 B b g c Z w s s c > . c g g h H Z B C c M : d ( Z Z F +.H Z H Y U ; w w w w v v , 3 2 0 2 - e p 0 w v ",
"Y R s b Q Y Y K P P P 3 Z Y L Y Y Y Y P L Y b 3 >./ ` / P R R Y R ] v G Z.$.X.X.=.&.! ! $.=.3 c U Z Z T L P Z Y Q b s Q Y Y Y P ",
"( 0.h Z ) E E E E R ( h U =.E ^ ! ( ( W ^ ( U p R P L C Z Y I P C L g B =.$.W W W X.W W W W w Y ( R R Y E ( ! R / D h 0.( ( ( ! ",
"$.z.g D l.%.>.>.=.) z.h Y >.) ( / ( ( ( ) ) R a Q P Z L Y P L L n I g V =.2.! W X.+.! R W W 0 L =.^ E ( ( ( / / ) D g v.%./ ( / ",
"{.;Xh ..,X].!.B.(.%X*Xe ( &X!.!.%X+X/.Q.~..X&.w R Y Z L C v L P I / g F r.4.r.4.4.2.&._ =.&.p q.).m.L.].E.C.V.+X_...f =X|.%X%X].",
"5 y ; 4 5 4 : u 5 3 7 5 w k k d p c p s a p 5 - > > > < ; = 2 > > 8 ; 3 w p w 0 r s h g s s r N G Z b b p h h w b w ; i i p y g ",
"m D R Y Z ; s D b w s C v s b m 4 $ w 0 0 0 w Z w w s w @ g v g g h B v s w b , O &.&.X.X.&.f. . .5.5.w > G s s s l v 0 5 4 w ; ",
"S.s.t.s.K.f v P / C n I K n P ~ v w Q L P R Y Y Y T Q R 8 V Y Y R R R R Y Y E b 4 S.e.s.a.p.5.5.7.5.:XJ 2 / P Y L L C K K C K 8 ",
"&.&.&.*.2.0 v x L K v C K n n K g s >.( E Y ( &.( R Q ) w T >.! W ! ! ! ( ( ) Y g &.&.*.4.*.+.*.*.X.q.G , n z C m n C C v v Z 0 ",
"4.3.*.5.4.g P K C Q K v C C n I g h [ ) ( E E ( =.( ^ =.v Y >.) ( ! ^ $.( ( >.Y 0 0.4.*.2.=.3.3.5.*.6.V 4 Z v z x v v v v b v s ",
"t.S.7.r.r.1 H Q v L Z z C C z C 7 V -XL.L.J.M.n.Z.I.D.F.h  .T.A.m.s.).&XL.I.XX*.w 4.5.4.-.5.r.! $.*.6.G 0 Z C B n C K Z K K C 8 ",
", 0 b b e 8 0 0 0 2 2 o > 2 > > > w b h N h p 0 w f f h r 0 b g h N a f g c N p = 0 p 2 0 3 , s g s w u 3 5 0 0 4 > ; $ ; ; ; + ",
"w 2 v B b Y Z B B Z Z 2 q B C w z z w w z z 0 4 4.X.X.o.y.4.X. .9.#.@ @ w 7 4 w H b w w v 3 0 Z V b v Z Y v b b Z w 2 g w v w v ",
"C v Y Z Y T Z C Z Z Y s q x z 6 q x z z C x w w J.p.y.d.g.u.u.}.}.j.j g ( K Y I Y Y U Y L Z A R Z Z Z Z L Z L Z Y b v I v z x C ",
"z A b.=.=.=.>.=.=.=.x.h e l w n z q 4 l C K w s s.5.6.7.7.:.*.8.;.P.k h [ E E E E E ! W ! Y Y =.0.&.$.&.*.$.( ( ) R c n z z w z ",
"v F e.=.( ) =.=.=.%.c.b w x I n l l z C n x w f S.y.p.5.=.y.p.7.k.OXV B `.0.4.q.>.>.1.z.G.M.! $.=.) ( ( ( %.&.) <.$.h v l z l l ",
"l c ,.=.>.>.&.=.=.( =.t > w q 4 e C e v 4 4 4 1 &. .X.X.&.=.;.7.@.;.g V P.7.8.g.,.Y T T | F v E ( $.X.w.x.>.>.,.q.Z 7 v l w w v ",
"2 3 p 0 3 : g c g h w 0 3 - ; > ; X 0 5 4 5 0 5 s p 0 s 3 % > 0 y 2 ; , 1 , t > - g a 3 u 0 0 g M A A 8 0 w s g 0 3 3 4 - 2 , = ",
"C m v v l ; Z Y P Z B C C I I ` Z 4 P Z Z D Z I Z n n L 5 4 l n c 4 6 C Z R Q Z : 8.y.p.Z.F.g.3.-.-.p.g 2 C v v g Z C v v Z L > ",
"R Y Y Y R 4 v L Z Z v e q z v C v w Q L Z Y Y Y Z Y Z R v l n 6 - 6 n Y P P P Z r | X.*.&.+.X.o.@.X.q.h v ! Y Y Y Y Y Y Y L R 5 ",
"( W / ( ( p B L L Z B e q w v C v Z m.q.=.=.=.=.=.=.&.q.D e w 4 v Q R L Z P Z w 3  . .&.$.X.o.X.! X.X.Z Z ( ! Q ( / $.! Q Q ! V ",
">.>.r.0.r.3 v R Y Q Z C e l x L Z Z z.0.=.$.) ) =.%.&.z.H w z I ` Q P P P v C v 0 *.*.5.2.*.$.&.&.$.&.H W M.,.>.>.>.=.>.x.~.m.V ",
"*.:.,.4.&.2 e v v e e B w 9 4 e < p q.=.&.$.$.&.E X.! ! 0 - e B b w b b w 4 v 0 5 J J W H T W H H H R 5 C U.y.,.:.i.q.=.X.$.W s ",
"y 5 h f p d 5 ; ; 1 1   + 2 > - , u 7 7 w w 5 : s s w w 0 0 2 3 2 5 o # 0 0 9 2 7 0 5 p p 2 ; g s s w 9 z l l q g 7 3 s w 0 4 3 ",
"v c @.@.&. . ...O...8.u w P P Z L Z Z m m Z w 5 / P L I ` / I / / v.s w I Z Z P Y Z C Z Z B 2 ~ L B w w w 4 6 6 6 7 w L v C C C ",
"v J 7.*.@. .O.6.p.| } 0 C ( Y Y Y R Y Y Y ( m 7 I n v n Z L x v Z L h V R Z Z Y L U U Y P Y 9 4 4 - - > - 4 - - > w v n z w l z ",
"B T 3.+. .*.p.6.6. .} c Y ( R ! %.$.E R E ( U w L C v C C K C B K L v R t.=.&.( =._ ( ( =.! p - - 4 4 4 4 4 - 6 4 4 b v w z w z ",
"v Z 5.W +.+.@.O. . .*.f W L.w.e.1.m.Q.V.n.@XT w / K K K P I L Z P / h Y <.%.( ) ( ( =.( =.( 9 q 4 4 6 4 4 4 4 4 4 q Z n l z z z ",
"w b 4.*.W T J W J J X.3 | P.=.! T $.$.( $.&.F 3 g w w w w e g e e z ; H D.,.>.q.q.q.q.q.d.$.q 4 - - - - 4 4 4 4 4 4 0 z w w w w "
};
