/* XPM */
static char *quartz_block_side[] = {
/* columns rows colors chars-per-pixel */
"64 64 38 1 ",
"  c #A5A39D",
". c #A9A7A2",
"X c #ACABA5",
"o c #AFAEA9",
"O c #B1AEA4",
"+ c #B0AFA9",
"@ c #B4B3AD",
"# c #B7B6B1",
"$ c #B8B7B2",
"% c #BBBAB5",
"& c #BEBEB9",
"* c #C1BFB6",
"= c #C0BFBA",
"- c #BFC0BA",
"; c #C3C2BD",
": c #C9C6BF",
"> c #C5C6C1",
", c #C9C7C0",
"< c #CDCBC5",
"1 c #CFCDC8",
"2 c #D1CEC7",
"3 c #D1CFC9",
"4 c #D5D3CD",
"5 c #D8D6CE",
"6 c #D7D5D0",
"7 c #D9D7D1",
"8 c #DCDAD5",
"9 c #DFDDD8",
"0 c #E0DED7",
"q c #E0DFDA",
"w c #E3E2DD",
"e c #E6E5E1",
"r c #E8E7E3",
"t c #EAE9E5",
"y c #EDEDE9",
"u c #F0EFEC",
"i c #F1F1ED",
"p c #F4F4F1",
/* pixels */
"etyyuiipiuyrpiuyyyerrrtyetttyur8yyutryyuuytyuyyretuutttuiittytr6",
"w800eiequq0qy099888677898899qqq#r6t779wewweeeew889ee0q0ereeq0q8=",
"w499qrryuqeqq08988877qq9qq98qe6#u86698ewwertrw9899qere9wq008888=",
":%480wqqqqqqe877q8977q789qqw763@y6668qewe9899988779etrwe0000q8q;",
"5<08890qqq998q969999q6q9e9qqq1>#y8998er997979898q9qq97wwyywqq8q=",
"e7q0880096998099899we9e98q6q836#r898996999e999797qee789ewtqrww8=",
"e3536677969q6q9987696w94868968q&r99667q999wq779rwwrreewe8y88q84+",
"0,386807079qq999699634136898qqq&u66669e93999999wq79798wrqreqqw8#",
"9140qqq7700qww94663111134977776=y61148e41898999r77408<7q8qqqqwq#",
"q430qqqq70qwwe74461141369qw9779=r96><4wq99qe9984603<:=78q8qqrw0=",
"q<778477946484699941434q9e9q799&r83<4138897wuq867773<=30wwrqwqq=",
"914=11<3411:=40w7w961139w9q4<89@w416444888789999q0741<18qrrqtqq=",
"w77<;=$43663<qee77761111<147994 914666967w9q8999qq741<479wrqy07=",
"e7413;337789wrww679614411767991@q746789889q989997743y<7q9qw747q@",
"r644444799w8q9w97996479676r9q66$e966q997899678997413<4q9wq97777#",
"6%##$###;%%&%;=%##%%&;&%;&=%==$#4%%%;&&=&==%=+>%++##%;=&;;=&%$#$",
"yerrrrttttyuttrr8ytttrtteyrrrrtttrtttttyytttrete7rtutptrwtrrwtyy",
"88789899qwwwwr87=e899898788788889qq6w99qwe999886=rqr777q63114q87",
"688999978wqtre88Xy9qw88w73798q8q699q99wqww989988&rqq77774,;367q8",
"6686697787288978@y98879w76687789899ew9qqrw988998&rq777774<:43q74",
"6777778608528870=t000ww09478997q9wweweeq9w9w8999$r99874644437764",
"7899998700522880*r50qe07913977q79wwreer9tw9wq8q9&t99q887707q7770",
"9999998888554008*r58880061987qrqwwreeee8y8888899%t9w999878wrq80q",
"79998w98787588w0=r7888q8118q9wwweeereee866966999&rq99wqqqqww977q",
"99w99erq78775888=r9888q999qq9qreerrttew668886qq9@y9qqww0qqwq7qq0",
"9w9w9q9777777800=e9887q78qqqq9qqe9898w8889899999=yqwwww00qq06q78",
"w9999q965788080w*t998w7q9e9wqq898898w98899w98q99;y9qqee080q8w7wq",
"9w8978797880880qXt5qwe8e88w7q79769r99999988999qq;yweqqq0w8qww9w8",
"8699799808580888+t47q8e84868q79999wwe6698899ew88>yrt0yqqw7898wq7",
"7999e99770888879*r47008877qq8q9q199we99699wwweq7>yee8y0qq969q999",
"6998669958080557+r74888894q78q8116w9w66w89ewewee>uee80qrq9w9e9ww",
"&%=#@##&*==*****+7***@=:=;===;&$%&###&##&&&;>>1>19&%%=>>$;>&&%%%",
"yyrtyttttetttyuttttwwyytttrrrtr3yyyyyytyytyyyyrwtrytt0ityiypiii8",
"w98999q90870qeq7888www889884169&u8w9999t97erw98989888858twiiw09-",
"969997990958089900wwww988998669&rw699w996998889e9999008twtww9w9%",
"w368889900788899wwwwwwqw8999868#r69999994689899wee878w8wyw08q6q#",
"r$,3080qww0989q8wetwtwwww9w9969%rw99696944qe9399we988wqwq050q89#",
"1O:0880eww99789qwwe8i99we898997&r6666969849w41899978wrww8088983o",
"8,87888eqq9997weeetw988we&89987#r86968w99<6wq9qq8999eeyeiiw8998#",
"e8098899979789wrtwtt95w0w668897Xe88ww89w93<389qqw899wpiiiyq9999%",
"y877q00098870w809tet9ewww888884.96weewe9w661qw9w9q8ww04ttwtw0w0-",
"tq05qwq0885788789ttwtww88428889@w9weerr9996688w6q8w0tww75itt0w8-",
"uqq00000858507850tiww898939889e%t9eeewr68998586899qwwyw90teieew-",
"yqqq00008885w0449ee89858838999e&y6errrw888we88q9w6q0tyqwwtewyew<",
"rqqqq700808888558w80w058989w99t&y68rr96999ewe96866wewtqwtt08yew-",
"e00q70008ww858858;8589888899w89%y118899999eyq888869wq864q8988tw>",
"r03477068www58552;480ww88999986#e6>668999w6wq88q989q854<<4579ww-",
"6$@+@#$+$&&%%&$@OO#%%%$#%%&#%%oo1##&>;>&>;>%%%&$%---%$$Oo#$$-->-",
"qrqerrr0qreeewet7ytytttyrywyrtytytpipyyyyyttttye6trtewereewewtyy",
"7064404*,36000qq*e008850w075eree90pywyeew9w8w968%w8444476464488r",
"75354443<<70qqww=e80754583339rw90wpyiyeq99989669%e7763166466499e",
"06354444<4qq9qqe:r8w05554327qeeeqetyee9w99w8864w-y9w86468664569e",
"0645547349wwweqq;t808676334weerrqte877w6w999986w%ywwe96688867886",
"076744406qeertqt=r8866613<7eeeee8y866wq89898989w-ywte99999898886",
"776744446wwewr8y$e333611<39eeeee8568899841499w8w-uwwee9999999966",
"81364704<reree86#r843611<39errew66688899846989w8-yw9qqwq99999664",
"q2558ww888wyww05#r898861166699w9898qq8q898684869-tqqw8www89w6666",
"8q888ww008www007%r99wq8168898988808qww9w998988q9%wq8558ww9984446",
"85550wwwq0wtq007&rq8qrw668899q990q8qqe8q99869w67@eq5w50w99974144",
"8880wwwwwqqw0508&r99eww368889q89q96wqq18999<6w98@958w00w98886411",
"88558itttwe80888;eqerw96669999q68999qwqqw993<388.849w88ww88886<>",
"08q524wwetepie08#rwrrw666686698899ew8qqee9w64199.w6wwwww5888986,",
"qww2<68wiiuyyey7#y899w63688696w9wweeweqwe98w8588@tq98:wwww0585q8",
"$%@-%O;$$@=:=>,%#6##%%o%#o#%#%@#%-------%@#%$@@#@6&%O$@O;;#@#@%%"
};
