/* XPM */
static char * t1_xpm[] = {
"64 64 4 1",
" 	c None",
".	c #CC6B21",
"+	c #D6884D",
"@	c #D27D40",
"................................................................",
".++++++++++++++++++++++++++++++++++++++++++++++++++++++++++++++.",
".+@+@@@+@@@@@+@@@+@@@@@@@@@@@+@@@@@+@@@@@@@+@@@@@@@+@@@@@@@@@++.",
".+@+@+@+++@+@+++@+@+++++++@+@+@+++@+@+@+++@+++@+++@+++++@+++@++.",
".+@@@+@+@@@+@@@+@+@+@@@+@@@+@@@+@+@+@+@+@@@+@@@+@@@+@@@@@+@+@++.",
".+++++@+@+++++@+@+@+++@+@+++++++@+@+++@+@+++@+++@+++@+++++@+@++.",
".+@@@@@+@+@@@@@+@@@@@@@+@@@+@@@@@@@+@@@+@+@@@+@@@@@@@+@@@@@+@++.",
".+@+++++@+@+++++@+++++++++@+@+++++++@+++@+@+++++@+++++++@+++@++.",
".+@@@+@@@+@+@@@@@+@@@@@@@@@+@@@+@@@@@+@+@+@@@@@+@+@@@@@+@+@@@++.",
".+++@+@+++@+++++++@+++++++++++@+++@+++@+@+@+++@+@+@+++@+@+@++++.",
".+@@@+@+@+@@@@@@@+@@@@@+@@@@@+@@@@@+@+@@@+@@@+@+@+@+@@@+@+@@@++.",
".+@+++@+@+++++++@+@+++@+@+++@+++++++@+@+++++@+@+++@+@+++@+++@++.",
".+@+@@@+@@@+@@@+@+@@@+@+@@@+@@@@@@@@@+@@@@@+@+@@@@@+@+@@@@@@@++.",
".+@+++@+@+@+++@+@+++++@+++@+++@+++++++++++@+@+++++++@++++++++++.",
".+@+@@@+@+@@@@@+@@@@@@@+@@@+@@@+@@@@@@@@@@@+@+@@@@@+@@@@@@@@@++.",
".+@+@+++@+++++@+++++++++@+++++++@+++++++++++++@+++@+@+++++++@++.",
".+@+@@@+@@@+@+@+@@@+@@@@@@@@@+@@@+@@@@@@@@@@@+@+@@@+@+@@@+@@@++.",
".+@+++@+++@+@+@+@+@+@+++++++@+@+++++@+++++++@+@+++@+@+@+++@+@++.",
".+@@@@@+@@@+@+@+@+@@@@@+@@@+@+@@@@@+@+@@@@@+@+@@@+@+@@@+@@@+@++.",
".+++++++@+++@+@+++++++@+++@+@+++++@+@+@+++@+@+++@+@+++++@+++@++.",
".+@@@@@@@+@@@@@+@@@+@@@@@@@+@@@+@+@+@+@+@@@+@+@@@+@@@@@+@+@@@++.",
".+@+++++@+@+++++@+@+++++++@+@+@+@+@+@+@+@+@+@+@+++++++@+@+++@++.",
".+@+@+@@@+@@@@@@@+@@@@@@@+@+@+@@@+@@@+@+@+@+@@@+@@@@@+@+@@@+@++.",
".+@+@+@+++@+++++++++++++@+@+@+++@+++++@+@+++++++@+@+++@+++@+@++.",
".+@@@+@+@@@+@@@@@@@+@+@@@+@+@+@+@@@@@+@+@@@@@+@+@+@@@@@+@@@+@++.",
".+++++@+@+++@+++++@+@+@+++++@+@+++++@+++++@+@+@+@+++++++@++++++.",
".+@@@+@+@@@+@@@@@+@+@@@@@@@@@+@@@@@@@@@@@@@+@@@+@@@@@@@+@+@@@++.",
".+@+@+@+++@+++++@+@+++++++++++@+++++++++++++++@+++++++@+@+@+@++.",
".+@+@@@+@+@+@@@+@+@@@@@+@@@@@+@+@@@+@@@@@@@@@+@+@@@+@@@+@@@+@++.",
".+@+++++@+@+++@+@+++++@+@+++@+@+@+@+@+++++++@+@+@+@+@+++@+++@++.",
".+@@@@@+@@@@@@@+@+@+@@@+@@@+@+@+@+@+@@@+@@@@@+@+@+@+@@@+@+@@@++.",
".+@+++@+++++++@+@+@+@+++@+@+++@+@+@+++@+@+++++@+++@+++@+++@+@++.",
".+@+@+@+@@@+@@@+@+@+@+@@@+@@@@@+@+@@@@@+@+@@@+@@@+@@@+@@@@@+@++.",
".+@+@+@+@+@+@+++@+@+@+@+++++++++@+++++++@+++@+++@+++@+++++++@++.",
".+@@@+@@@+@+@@@+@@@+@+@@@+@@@@@+@@@@@+@+@@@+@@@@@@@@@@@@@@@+@++.",
".+@+++++++@+++@+++@+@+++@+++++@+++++@+@+++@+++++++++++++++++@++.",
".+@+@@@@@+@+@@@+@@@+@+@@@+@@@@@@@+@@@+@@@+@@@@@@@@@@@@@@@@@+@++.",
".+++@+++@+@+++++@+++@+++@+@+++++@+@+++@+@+++++++++++++++++@+@++.",
".+@@@+@@@+@@@+@@@+@+@@@+@@@+@@@@@+@@@+@+@@@+@@@@@@@@@@@+@@@+@++.",
".+@+++++@+++@+@+++@+++@+++++++++++++@+@+++@+@+++++++++@+@+++@++.",
".+@@@@@+@@@@@+@+@@@+@@@+@@@+@@@@@@@+@+@@@+@@@+@@@@@@@+@+@@@@@++.",
".+@+++@+++++@+@+++@+@+++@+@+@+++@+++@+@+@+++++@+++++@+@++++++++.",
".+@@@+@@@+@+@+@+@@@+@@@@@+@+@@@+@@@@@+@+@@@@@+@+@@@@@+@@@+@@@++.",
".+@+++++@+@+@+@+@+@+++++++@+++@+++++++@+++++@+++@+++++++@+@++++.",
".+@+@@@@@+@@@+@@@+@+@@@+@@@@@+@+@+@@@@@+@@@+@@@+@@@@@+@@@+@@@++.",
".+@+@+++++++++++++@+@+@+@+++++@+@+@+++++++@+++@+@+++@+@+++++@++.",
".+@+@@@+@@@+@@@@@+@+@+@+@@@@@@@+@@@@@+@@@@@+@@@+@@@+@+@+@@@@@++.",
".+@+++@+@+@+@+++@+@+@+++++++++++++++@+@+++++@+++++++@+@+@+@+@++.",
".+@+@@@+@+@@@@@+@+@+@+@@@+@@@@@@@@@+@@@+@@@+@+@@@@@+@@@+@+@+@++.",
".+++@+++@+++++++@+@+@+@+@+@+++@+++@+++++@+@+@+@+++@+@+++++@+@++.",
".+@@@+@@@+@@@@@@@+@+@@@+@@@+@+@+@@@@@@@+@+@@@+@+@@@+@@@@@@@+@++.",
".+@+++@+++@+++++@+@+@+++++++@+@+++++++@+@+++++@+@+++++++++++@++.",
".+@@@@@@@+@@@+@+@+@+@+@@@@@@@+@@@+@@@+@+@@@+@@@+@+@@@+@@@@@@@++.",
".+@+++++++++@+@+@+@+@+++++@+++++@+++@+@+++@+@+++@+@+++@++++++++.",
".+@+@+@@@@@+@+@@@+@+@@@@@+@+@@@+@+@@@+@@@+@@@+@@@+@@@@@+@+@@@++.",
".+@+@+@+++@+@+@+++@+++++@+@+@+@+@+@+++++@+++++@+++@+++++@+@+@++.",
".+@@@+@+@@@@@+@+@+@@@@@+@@@+@+@+@+@@@@@+@@@+@@@+@+@@@@@+@@@+@++.",
".+++@+@+++++++@+@+++++@+@+++@+@+@+++++@+++@+@+++@+++++@+++@+@++.",
".+@+@+@+@@@+@@@@@@@@@+@+@+@@@+@+@@@+@@@@@+@@@+@@@@@@@+@@@+@+@++.",
".+@+@+@+@+@+++++++++++@+++@+++@+++@+@+++++++++@+@+++++++@+++@++.",
".+@@@+@@@+@@@@@@@@@@@@@@@@@+@@@@@@@+@@@@@@@@@@@+@@@@@@@@@@@@@++.",
".++++++++++++++++++++++++++++++++++++++++++++++++++++++++++++++.",
".++++++++++++++++++++++++++++++++++++++++++++++++++++++++++++++.",
"................................................................"};
