/* XPM */
static char *door[] = {
/* columns rows colors chars-per-pixel */
"64 64 95 2 ",
"   c #030303",
".  c #0C0C0C",
"X  c #150F0F",
"o  c #131313",
"O  c #1C1616",
"+  c #1C1C1C",
"@  c #240000",
"#  c #2C0000",
"$  c #330202",
"%  c #3C0000",
"&  c #3C0C0C",
"*  c #251D1D",
"=  c #2B1E1E",
"-  c #341C1C",
";  c #3C1E1E",
":  c #242323",
">  c #2B2424",
",  c #2B2B2B",
"<  c #332424",
"1  c #3C2222",
"2  c #342C2C",
"3  c #3B2D2D",
"4  c #343434",
"5  c #3A3232",
"6  c #3E3937",
"7  c #3C3C3C",
"8  c #400F0F",
"9  c #5B0000",
"0  c #431313",
"q  c #481717",
"w  c #4A1A1A",
"e  c #730000",
"r  c #412525",
"t  c #422E2E",
"y  c #4A2C2C",
"u  c #522424",
"i  c #552929",
"p  c #5A2E2E",
"a  c #413A3B",
"s  c #5D3434",
"d  c #563939",
"f  c #5D3C3C",
"g  c #623C3C",
"h  c #6D3D3D",
"j  c #434343",
"k  c #4B4343",
"l  c #4C4C4C",
"z  c #524444",
"x  c #5C4141",
"c  c #594B4B",
"v  c #545454",
"b  c #5D5252",
"n  c #5B5B5B",
"m  c #6C4141",
"M  c #604C4C",
"N  c #6B4A4A",
"B  c #7A4A4A",
"V  c #625252",
"C  c #636363",
"Z  c #6B6B6B",
"A  c #747474",
"S  c #7B7B7B",
"D  c #8E0000",
"F  c #900000",
"G  c #A70000",
"H  c #A80000",
"J  c #BA0000",
"K  c #C60000",
"L  c #C90000",
"P  c #D40000",
"I  c #DB0000",
"U  c #E30000",
"Y  c #EC0000",
"T  c #F50000",
"R  c #FF0000",
"E  c #946666",
"W  c #966969",
"Q  c #986A6A",
"!  c #9F7070",
"~  c #A07171",
"^  c #838383",
"/  c #8C8C8C",
"(  c #939393",
")  c #9B9B9B",
"_  c #B38585",
"`  c #AB9E9E",
"'  c #BB9696",
"]  c #B59F9F",
"[  c #A5A5A5",
"{  c #ACACAC",
"}  c #B5A0A0",
"|  c #B1B1B1",
" . c #EECACA",
".. c #E1D4D4",
"X. c #EBD4D4",
/* pixels */
"  . O : : : : : : : : : , , : : : : + + o . . . . . . o o o . . + : : , , , , , , , 4 , , : + : + + o o . o o + : : : , , + .   ",
". + 4 j l l j j j j j l v v l l l l l l j 4 + : : , , , : : : , 4 l l l v v n n v v v v v l j j j j j j 4 , , 7 j l j l j 4 + . ",
"o , l C C C C C C C C C C Z C C C C C Z n v 4 4 7 j j j j j j j 7 C Z Z Z Z S S ^ S S ^ ^ ^ A A Z C C C C n v v C Z Z Z C l , o ",
": j C S ^ ^ ^ ^ ^ ^ ^ ^ ^ ^ ^ ^ ^ ^ S A A l l l l n n v v C S Z v C ^ ( ( ( / ) [ [ [ { [ [ [ [ ) / ^ ^ ^ / A A S ( ( ( / Z j : ",
": l C ^ ( / / ( ( / / / / / / / ^ S S A C l v v n C C A ( { | { ^ v ^ ( ( ) ) ) ) [ | | | | | | { | ) ( / / A S S ^ ) ) / Z l : ",
": j C ^ / / / / / / / / / / / ^ S S S C l v v v C A ) | | { { ) ) A C / ( / ( ) ) ) ) [ { | | | | | { ( / C v Z S S S ^ / Z l : ",
"+ j C ^ / / / / / / / / / / ^ S S S C l l v v A ) | | | { ) ) ) ) ( C Z / / / / / / / / ( ) ) [ [ [ ) ) C l l v l C S S A n 7 + ",
"+ j C ^ / ( / / / / / / / ^ S S Z v l l v n ^ | | | [ ) ) ) ) ( / / S l A / / / / / ^ S ^ / / S ^ ^ ^ C l v v v l l v C Z v 4 + ",
"+ 7 n ^ / / / / / / / / S S S C l l v v n ( | | [ ) ) ) ) ( / / / / A l l Z / / / ^ S S ^ / / S S S n l v n v v v v l l l 7 , o ",
". , v A S ^ ^ / / ( ^ S S A v l l v v C ) | { [ ) ) ) ) / / / / / / n l v l n ^ / / / / / / ^ A S n l v v v n C n n n v l , + . ",
". + 7 C S S S S ^ S S S A v l l v v n [ | { ) ) ) ) ( / ^ / / ( / n l v v v l l Z / / / / ^ S A v l v v n n Z S A C l l l 4 :   ",
". + , l n Z S S S S S A v l v v v C ( | { [ ) ) ) ^ ^ / ^ S / / A l l v v n n l l l Z / A Z n l l v v n A / [ [ ) ) ^ l l 7 : . ",
"  : 4 l l l C A A A A v l l v n n A { { ) ) ( ( ^ S ^ / S A S A n l l v n n v v l l l l l l l l v v C / { { { { { { ) S j 4 : . ",
"  + , 4 7 4 7 j n v 7 4 7 j j l l A ^ S A A A Z C C Z C n n n n 7 4 7 j l j l j j j 7 7 7 7 7 j l C A A S ^ S ^ ^ ^ ^ A 4 : +   ",
"  . + : : : : : : : : : : , , , , C n v v l l 7 7 7 j 7 7 7 7 4 : : : : , : , , : , : : : , , 4 l l v v v l l v v v C n : .     ",
"    o : + o . . . . . o o o o o + 4 , : , , + + + + + + + + + . . . . o o o o o o o o o o o : : , , , : : , , : , , , 4 O       ",
"X O * : : = * O = * * * + * * , * * : = : = = + + + : + v C Z C C Z C v + + + + : > * > > 2 > 2 , > : > : : < 2 > 2 > 2 : : * * ",
"* * = : = : * * 2 , > > > : < 5 > * : * > : : * + : : : Z S S ^ ^ ^ ^ Z : : : : 2 3 > 2 2 5 , 2 4 > > 2 = : 2 5 , 5 > 2 2 5 2 > ",
", : * = : : = > 2 > > = = * < 5 < = * * : = > = : : : : Z ^ S ^ ^ ^ ^ A + : : : 2 2 > 2 5 5 2 2 5 , > 2 * : 2 2 < 5 > 2 2 5 5 > ",
"2 = * * = > > > > > < : : * , 5 2 : = * > > : > : + : : Z S ^ ^ ^ ^ ^ Z : : : : 2 2 : 2 5 5 > 2 5 > < 2 * = 2 5 , 5 > < 2 5 3 > ",
"2 > * * > < > > > > 2 > : * < 5 2 > = * > > < > > : > , a 6 6 k k a z 7 > > , > 2 2 : < 2 5 > 2 5 > 2 2 * * 2 2 > 5 , > 2 5 2 : ",
"2 > = = > 2 > , > > 2 : = * 2 5 2 < > * = > 2 > , > 2 < = = = t 5 < 3 < = > 5 : 2 2 : , 2 3 : < 5 > 2 2 = : 2 2 < 5 > > , 3 < > ",
"5 > = > = , < > > < 2 > * * 2 5 2 > > : : > 2 , , > 5 < < - 1 y y r t < < 2 4 : 5 2 > < 2 2 : , 5 > 2 3 : > 2 < , 5 > > > 5 > > ",
"5 > > > : > 2 > = 2 2 : * * 2 5 2 2 > = : > 4 : 2 z M f g i q 0 8 q s m x c c 5 4 2 : > , 3 = 2 5 2 > 2 > < 5 , > 5 > > > 2 < > ",
"5 > : > = > 2 : > 2 2 : > : 3 5 5 2 : > > > 2 2 ` } ' ! u # # # # # @ q Q ' } ` 7 , * : = 3 : < 5 2 2 2 , 2 5 > < 5 * = * 2 > : ",
"5 : = > > , > > > 3 2 > = > 2 5 5 2 : = : > 2 z } ' B $ # $ 9 e e 9 $ @ @ m ' } c > + * * 2 > < 5 5 , 2 < 5 5 > , 2 * = * , < > ",
"3 > > : > < > > : 3 2 = : : 2 5 5 < > > : < 3 z ' B $ % G R R T U L J e # @ h ' x 2 > * = 2 > 2 5 5 < 2 > 5 5 > * 2 > > * < < 2 ",
"2 > = > > 2 > > > 2 2 > > > < 5 5 > > = : < 3 f ~ $ % Y R R R R T T P K D # @ Q x < > * : 2 > 2 > 2 > 2 , 5 2 = * > = : * > , 2 ",
"2 > = > > > > = > < 2 = > : , 5 5 , > = : < < g i $ G R R R R R R T Y L K e @ & f - = > > > > 2 > > > < > 5 2 * * : * > : > < 2 ",
"2 : : > > > : > > > 2 : = > < 5 5 > > : = < 1 p $ % R R R R R R R T T P K J $ @ u - : < : > < 2 > > > : > 5 2 * * * * > > : : 2 ",
"2 = : = = : > < > < 2 : > 2 3 2 2 > > = : < ; q # 9 R R R R R R R T R P L L 9 @ & ; < < : > , 5 > > > > > 2 < * * * : < > > > 3 ",
"2 > > > > > = : : > 2 = > 2 5 2 2 > > > < < ; & # e T R R R R R T R T P L L e X $ ; < 2 = > 2 5 < 2 > = = 2 > * O * > < > > > 2 ",
"2 : > < < * * * * > 2 > : 2 5 < 2 > = : 3 < ; & # e U R R R R T T T T L L K e @ $ 1 < < : > 2 5 2 2 > : > > = = > > > 2 > : < 5 ",
"< > : < 2 * * O = = , > = , 5 > < > > > 2 < - & # 9 L Y T T T R T T I K L K 9 @ 0 ; < 2 = > 2 2 2 2 < > > : > : > > : 2 > = > 2 ",
"> : : 2 5 = * * : = > > > < 2 > > : : > 3 3 - u # % J P Y T T T T I L L K J # @ p ; < 2 > = > 2 5 5 > : > = = > = > = 2 > > > > ",
"> < > 2 5 : * * * * > > > > 2 > > < > > 3 3 = s w # e K L P I P L L L L K e @ 0 N < 2 2 : > > < 5 5 < > > > : > : > > 3 > > > : ",
"< < > 2 5 < * > > = * = 2 > 2 > 2 > 2 > 5 3 > d Q # # D K K K L K K K K D @ @ _ N < 2 2 > : > < 5 5 > : > > > 2 > : > 5 > > > = ",
", 2 > 5 5 2 : > , > * * 2 , 2 5 5 > 2 < 5 5 < z ' h # # e J K L K K J e # @ B  .V > 2 2 > > : < 5 5 < > = > > 2 > > > 5 = : > > ",
", 2 , 3 5 2 : 2 : * : = 2 > > 5 5 , 5 , 5 5 , z ] ' h @ # $ 9 e e 9 # @ @ B  .X.b , 5 2 = > > 2 5 5 2 > > = > 2 > = 2 5 < = : < ",
"< 2 > 2 2 3 > 2 < = : * 2 > < 5 2 < 2 > 2 5 , 5 ` } ' E 0 @ @ @ @ @ @ 0 _  .X...4 > 2 2 = > : 2 5 5 2 : : > > 2 < : > 5 > : > > ",
"> 2 > > 2 2 > 2 < : < < 5 : 2 5 2 > 2 > > 5 , , a z z m m i & 8 & 0 s N N b V a > : 2 2 > * = 2 6 2 < : : > > 2 : > < 5 > > * > ",
"> 5 > > 2 5 : 5 2 > > 2 3 : > 5 > 2 3 > > 3 < , 4 , , < t < ; y y 1 ; < < > , , , > , 2 : = * 2 5 2 < > > : > 2 = > : 5 > : * > ",
"2 5 > * < 5 > 3 2 > , 2 2 > 2 5 > 2 2 : : 5 2 , 5 > : , 3 2 < t t < > = : : 4 : < : > 2 = : * 2 5 2 < : * = > 2 > > : 2 > > * = ",
"> 2 > * > 5 > 2 2 : < 2 5 > 2 5 > 2 2 * = 2 2 > , : : , z j a k a a a 5 , : : : < > > 2 : = * , 5 < < : * > < > > < > < < : * * ",
"> 2 = * > 5 > 2 2 > 2 5 5 < 2 5 > < < * * 2 3 > : : : : A ^ ^ ^ ^ ^ ^ Z : : + : , > > > > = * < 5 2 = * * : = = : 2 > > : = = * ",
"> 2 * = > 5 2 5 2 > 2 2 5 , 2 5 > : 2 * : 2 2 > : : + : A ^ ^ ^ ^ ^ ^ C + : : : > 2 > : : > * > 5 , > * * > > > > 2 < : > > * * ",
": 2 : > : 5 2 2 3 > 2 2 5 , 2 5 > > 2 : : 2 5 , : : : : Z ^ ^ ^ ~ ^ ^ Z : : : : : 2 < , > = : < 3 > * * = : = : * > 2 > > : : > ",
"O = = > : 2 > , > : : > > * > > * * * * * > > * + + + + v Z Z C C C C v + + + + O : > > > > > > 2 : * : = : > * * O = * * O * O ",
"  . + , , , , , + + . .   . .   . . . o o o o o o + + + + + + + + + : : : o o . . : , 4 4 , , , , , : , : : , : : . . . .       ",
". : 7 v n v l k 7 7 , + : : : : : : , , , , , , : , 7 7 7 7 7 7 7 7 j l 7 : : 4 n C n n v v v l l l l j l k l l l 7 + : : o .   ",
"+ 7 n S ^ S A n n C l 4 7 7 j j j j j l j l j l j 4 j n n n n n n n n l 7 7 Z / / ^ A A A A A A Z Z Z Z Z Z Z Z A A v 7 7 : + . ",
", l Z / [ [ ^ A A A C l l v n n Z A S S S A Z n n v l v Z Z A Z C v l l C [ { { ) ( ) ( ( ) ) / ^ / ^ / / ( / ^ ( ( / v l 4 , : ",
", j Z ( ) ( S A S S C l v v Z ( [ { { | | | | ( C v l l l l v l l l l n { | { ) ) ) ) ) ) ) / / / / ( ) ) ) ) / ( ( / A l 7 , : ",
", l Z ( ) ^ S S S A C l v ^ ) { | | | { { [ { [ / S A n l l l l l v v v { [ ) ) ) ) ) ) ) ( / / / ) ) ) ) ) ( / / / / A l 4 , , ",
", l Z ( ^ S S S S Z C l S ) { | { [ ( ^ S S ( ) / S S S C l v v v n n v Z ) ) ) ) ) ) ) ) / / / ( ) ) ) ) ) / / ( ( / C l 4 , , ",
", l Z ^ S S S S A Z C l / { | { [ ( ( ^ S S / ) / / S S S v v v n C C v l A ) ) ( / ) ) / / / ( ) ) ) ( ) ( / ( ) ) S l v j , , ",
": l Z A S S S A A Z n l ( | | ) ( / / / S S A S ^ / / S S C v v n C C n v l S / / ( ) ) / / ) ) ) ) ) ) ) ( ) ) ) S v v v j : + ",
": j v A A A A A A Z l l ) { ) ) ( / / / ^ S S S S / / ^ S Z l v n C C n n v l A / / ) / / / ( ) ) ) ) ) ) ) ) ) ^ l l v v j : . ",
". , l Z Z A Z Z Z v l v C / ( ) ) ) / / / / S S ^ / / S A v v v n C n C C n n l n S / / / / / ) ) ) ) ) ) ) ) / n l v v v j : o ",
". + 7 v C C C A S A C v v Z / ( ) ) ( / / / ^ S / / ^ Z v l v v C C C C n C n v l l v Z ^ / / / ( ) ) ) ) ) S l l v v C n j , . ",
"o , j C Z S ^ / / / ^ C v l C ^ ^ ^ ^ ^ ^ A A A S C l l l l v v n n n n Z A ^ Z n l l l j l n Z Z A S Z n l j l l l v n v j , o ",
". , j n Z Z A S S ^ A C l 4 4 4 l n v v l l l j 4 4 4 4 4 7 7 j j j l C Z A A Z Z C l 7 7 7 4 4 4 4 4 4 4 7 7 7 j j l v v j , . ",
"  + 4 l v v v v v v n v j 4 + + + + + + + + o + + + + : : : , , , 4 l l v n v l l l l j 7 , : : : : + : : : : : : 7 l l j , o   ",
"  . + : , , , : : : , , , : + o .   .     . . . . . . . o . o . o : : , , , , , , , : : : : + + o . . . . . o . + : , , , o .   "
};
